<?xml version="1.0" encoding="UTF-8"?>
<!DOCTYPE svg PUBLIC "-//W3C//DTD SVG 1.1//EN" "http://www.w3.org/Graphics/SVG/1.1/DTD/svg11.dtd">
<!-- Creator: CorelDRAW 2018 -->
<svg xmlns="http://www.w3.org/2000/svg" xml:space="preserve" width="100mm" height="43.3203mm" version="1.1" style="shape-rendering:geometricPrecision; text-rendering:geometricPrecision; image-rendering:optimizeQuality; fill-rule:evenodd; clip-rule:evenodd"
viewBox="0 0 11564.57 5009.81"
 xmlns:xlink="http://www.w3.org/1999/xlink">
 <defs>
  <style type="text/css">
   <![CDATA[
    .fil1 {fill:#2B2A29}
    .fil0 {fill:#2B2A29;fill-rule:nonzero}
   ]]>
  </style>
   <mask id="id0">
  <linearGradient id="id1" gradientUnits="userSpaceOnUse" x1="7235.31" y1="3244.66" x2="7235.31" y2="1623.55">
   <stop offset="0" style="stop-opacity:1; stop-color:white"/>
   <stop offset="1" style="stop-opacity:0; stop-color:white"/>
  </linearGradient>
    <rect style="fill:url(#id1)" x="2880.3" y="1514.22" width="8688.68" height="3460.89"/>
   </mask>
 </defs>
 <g id="Слой_x0020_1">
  <metadata id="CorelCorpID_0Corel-Layer"/>
  <path class="fil0" d="M3357.26 3538.09c-14.83,10.95 -14.83,10.95 0,0z"/>
  <path class="fil0" style="mask:url(#id0)" d="M6664.11 1852.22l-4.72 4.29 4.72 -4.29m-3484.74 2853.8c-101.86,-9.71 -197.51,29.92 -294.67,48.61 9.95,5.61 29.56,17.01 39.5,22.62 86.21,-20.19 183.6,-26.55 255.16,-71.23zm4944.1 -3187.39c-506.27,32.23 -1014.42,58.6 -1517.97,109.96 -187.95,23.72 -379.65,38.51 -561.52,80.08 -126.83,29.3 -265.37,50.8 -368.56,111.22 8.8,21.07 47.1,18.84 71.36,25.81 364.17,61.54 739.84,82.61 1110.07,121.81 99.7,5.94 218.5,33.24 303.92,-13.83 8.56,0.99 17.12,1.8 25.68,2.15l19.9 3.03c23.89,2.96 47.62,6.04 71.33,9.11l-11.26 4.07 3.39 0.12 -50.27 12.24c11.73,3.21 35.17,9.77 46.88,13.11 53.58,-14.36 108.42,-31.25 168.06,-23.85 -19.45,8.08 -39.13,16.04 -59.22,23.57 19.67,5.86 39.15,11.73 58.82,17.59 9.19,-5.31 27.41,-15.77 36.61,-21.07 -2.41,-0.32 -4.57,-0.69 -6.5,-1.12 31.27,-1.39 64.23,-0.14 93.42,-7.47 16.21,0.67 32.42,1.72 48.5,2.73 16.11,0.97 32.23,1.95 48.34,3.06 -29.72,10.05 -58.6,21.36 -84.98,34.89 91.46,2.51 180.82,18.69 272.08,19.81 44.69,1.01 82.56,-22.62 124.72,-25.7 -16.21,7.74 -32.22,15.92 -47.91,24.45 60.21,-0.34 137.26,19.53 187.11,-16.87l15.25 0.96c10.07,0.71 26.51,1.91 41.3,3.02 -21.73,11.1 -43.6,22.03 -65.35,33.27 119.5,2.98 235.02,38.13 355.36,30.84 14.19,-12.66 28.19,-25.45 42.2,-38.29l6.36 -0.52c9.22,-1.95 27.42,-5.72 36.62,-7.67l8.07 -2.35c51.02,38.35 -45.82,40.67 -74.83,58.37 71.79,20.56 150.07,21.3 219.54,-6.92 -5.03,-3.56 -15.06,-10.48 -20.09,-13.84 -28.88,-10.47 -58.39,-19.26 -87.9,-28.23 11.73,-2.42 35.58,-7.29 47.51,-9.91 -6.07,-7.66 -17.99,-23.36 -23.86,-31.21 15.28,-3.38 45.83,-10.1 61.12,-13.46 -43.33,-2.61 -87.07,-4.67 -130.6,-7.47 3.98,10.47 11.92,31.02 15.9,41.31l-4.04 1.58c-4.04,-7.78 -9,-17.37 -11.87,-23.03l-6.92 -12.85c-12.34,1.4 -37.25,4.05 -49.6,5.45 -46.45,6.14 -93.34,15.48 -141.26,10.74 -1.47,-5.02 -4.19,-15.07 -5.66,-20.1l-1.89 -7.53c-364.99,-26.52 -729.78,-55.53 -1094.58,-83.44 -149.28,-12.89 -299.5,-23.44 -448.93,-37.12l0 -0.1c-14.54,-6.4 -21.73,-5.78 -24.35,-2.15 -34.6,-3.25 -69.14,-6.68 -103.62,-10.37 -96.96,-10.36 -193.35,-22.72 -288.72,-38.58 87.91,-82.61 241.32,-116.65 383.01,-138.97 263.49,-34.34 528.66,-65.44 796.13,-81.36 160.1,-11.71 318.53,-34.46 479.89,-36.56 54.63,-1.95 108.42,-8.65 162.83,-12.84 -23.01,-9.77 -46.05,-19.67 -69.06,-29.58zm-4592.64 2199.67l27.42 12.81c-35.91,6.27 -72.31,10.8 -109.41,10.23 -34.59,14.43 -54.42,42.64 -67.16,74.34 3.47,13.18 10.41,39.72 13.87,53.08 35.73,-9.83 71.9,-19.82 101.49,-40.6l-30.8 -3.68c2.35,-12.39 6.86,-37.56 9.21,-49.95 10.2,9.9 31.05,29.56 41.48,39.3 -3.19,6.7 -9.6,20.12 -12.8,26.83 33.97,-5.66 67.79,-12.25 101.19,-18.7 -11.61,-40.36 -11.61,-81.97 -5.57,-122.77 28.93,-7.83 45.76,-32.57 66.52,-50.51 -16.27,25.68 -25.82,55.5 -28.63,83.74 23.83,42.72 71.92,24.39 111.97,18.61 -6.34,-23.13 -12.44,-46.42 -18.13,-69.69 18.5,20.05 36.59,40.27 54.43,60.82 31.96,-6.92 63.78,-14.78 91.38,-31.19l-29.96 -6.43c-5.86,-26.85 -10.27,-53.58 -13.82,-80.44 7.42,-17.27 22,-30.31 36.49,-43.21 5.37,-1.02 10.74,-2 16.12,-2.93 95.72,-18.34 190.65,-40.48 287.16,-55.2 -45.12,47.6 -130.36,32.98 -182.04,69.66 -24.33,0.99 -48.72,3.75 -68.25,18.32 -9.24,35.7 23.16,64.04 39.97,93.35 22.61,-4.96 45.19,-10.11 67.57,-14.91 -8.78,-23.14 -17.56,-46.28 -26.55,-69.26l0.45 -0.09c16.51,9.68 33.03,19.16 49.55,28.47 6.05,9.43 18.16,28.09 24,37.49 29.5,-7.64 58.56,-15.15 87.46,-23.22 -10.69,-12.19 -32.23,-36.76 -43.11,-48.98l-1.34 7.03 -6.07 -19.73c8.44,-1.21 16.91,-2.37 25.38,-3.46 9.86,-14.86 19.72,-29.52 29.57,-44.2 3.55,-14.73 10.69,-44.41 14.47,-59.13 -101.46,22.54 -203.72,41.78 -305.4,63.11 -9.12,-5.25 -20.09,-11.62 -26.89,-15.61 1.61,-0.58 3.17,-1.21 4.68,-1.91 -78.99,-25.27 -159.07,-11.44 -236.54,7.05l3.47 19.17c35.95,-1.01 68.76,3.75 98.45,14.28 -56.76,54.83 -149.63,0.46 -219.11,-8.01 -25.06,25.03 -65.48,18.05 -99.24,23.71l2.9 -11.41c27.82,-4.76 54.91,-10.92 81.14,-19.93 -31.49,-20.41 -62.96,-41.19 -94.45,-61.79 -25.22,12.47 -50.9,25.44 -81.03,24.45 -3.94,20.15 -7.89,40.29 -11.84,60.63 26.34,7.11 52.93,13.87 79.06,21.15 77.29,40.51 158.08,-15.99 238.26,-1.69 -97.79,21 -209.78,85.59 -305.84,25.77 -6.68,5.53 -20.06,16.56 -26.76,22.27 16.05,1.51 48.33,4.93 64.38,6.43l-2.05 19.91c-12.17,0.07 -36.09,0.07 -48.05,0.15 -8.04,69.16 -12.96,138.72 -15.16,208.28 13.22,-38.6 23.77,-77.78 35.12,-116.71 30.1,-22.23 60.25,-45.03 89.35,-67.9 -23.43,2.09 -70.1,6.48 -93.55,8.56 1.05,-3.11 3.4,-9.49 4.48,-12.79 67.57,-15.09 136.59,-26.7 201.91,-48.5 11.03,7.16 21.87,14.29 32.68,21.61 -52.75,1.14 -92.16,33.21 -125.71,65.51 34.68,-6.73 68.31,-13.53 102.24,-21.63zm187.97 -198.29c-49.87,-24.71 -94.37,-65.89 -153.65,-70.29 3.97,15.09 11.7,45.07 15.67,60.15 -30.14,-24.62 -67.4,-34.75 -106.82,-35.11 22.28,58.75 104.44,95.48 163.26,55.97 27.33,-3.69 54.64,-7.19 81.54,-10.72zm3173.13 -288.35c-381.91,-135.19 -525.77,-63.08 -236.41,0.94l5.11 -14.11c-27.33,-74.02 -1.63,-28.18 72.17,-2.23l-11.71 5.61c-8.67,2.59 -25.74,7.82 -34.43,10.42 16.86,14.81 42.16,13.75 63.44,5.26 14.9,5.82 24.77,-0.36 29.52,-18.62 37.46,5.15 74.72,9.38 112.3,12.73zm-245.03 38.72c-256.77,-90.9 -465.99,-59.68 -192.86,0.77l4.16 -11.51c-3.34,-9.04 -10.25,-27.15 -13.59,-36.21 22.74,13.61 47.09,25.45 72.48,34.38l-9.56 4.57c-7.07,2.12 -21.01,6.37 -28.09,8.5 21.14,18.55 58.49,6.58 75.26,-10.97 30.75,4.24 61.35,7.71 92.2,10.47zm-1321.11 1693.06c-5.98,-19.64 -12.43,-38.89 -18.9,-58.14 -72.54,20 -146.82,36.08 -219.62,55.89 79.25,5.24 159,3.37 238.52,2.24zm-716.55 -43.38c0.99,-4.48 2.73,-13.63 3.72,-18.32 -70.56,25.62 -147.08,39.64 -221.37,58.14 79.51,12.72 160.26,7.86 217.65,-39.82zm1817.21 -18.13c-11.68,-4.48 -35.28,-13.26 -46.96,-17.57 -92.42,21.68 -188.32,41.32 -272.57,78.7 86.98,7.48 173.93,-1.12 253.93,-27.85 20.12,-11.78 70.31,-6.36 65.59,-33.28zm526.23 -135.17c-107.84,-43.55 -213.44,27.86 -318.28,46.19 23.11,8.79 46.21,17.95 70.57,24.48 85.21,-17.58 167.7,-42.43 247.71,-70.67zm-1465.39 -75.33c-57.9,14.77 -116.03,29.54 -173.93,44.5 -76.27,16.26 -123.23,70.67 -198.52,89.16 11.19,-12.71 33.05,-38.31 44.23,-51.03 -68.34,19.27 -139.63,32.72 -206.22,55.34 -78.01,33.28 -138.39,84.13 -202.5,130.48 67.84,11.04 138.14,2.44 206.97,3.75 25.59,-33.28 68.82,-51.4 115.28,-64.11l-12.67 40.93c83.74,-24.11 171.94,-39.25 253.68,-66.92 37.27,-71.04 97.4,-132.36 173.68,-182.08zm670.83 -3.74c-76.03,20.56 -152.31,39.82 -228.59,59.82 -14.91,18.13 -31.55,46.55 -66.84,42.06 -94.4,-19.81 -180.63,28.04 -269.56,44.49 10.67,43.75 21.37,89.17 55.41,126.76 112.56,8.04 226.34,2.61 339.14,1.68 -34.79,-28.78 -71.32,-56.64 -106.35,-85.44 26.83,-6.73 53.67,-13.26 80.26,-20 33.79,26.17 68.58,51.59 103.36,77.02 91.18,-22.07 181.36,-46.55 271.06,-71.41 -78.01,-46.18 -146.85,-102.82 -177.9,-174.98zm-2307.17 84.69c-111.55,-29.17 -225.84,-55.34 -325.22,-105.25 -83.98,20 -168.7,37.94 -252.44,58.14 35.3,18.51 71.06,36.45 106.85,54.4 -25.1,6.55 -49.95,12.71 -75.54,19.45 -35.77,-17.58 -70.31,-36.46 -107.83,-51.97 -86.46,5.79 -168.21,34.21 -251.93,51.21 115.03,57.59 263.61,129.37 404.24,87.31 2.74,9.16 7.96,27.3 10.69,36.28 225.59,0.17 471.33,32.15 678.78,-50.86l-68.58 -9.71c40.75,-10.48 83.73,-14.4 126.47,-14.4 114.04,0.56 222.12,-30.66 328.7,-57.39 -141.86,0.74 -284.48,9.16 -425.85,-6.36 -94.66,-15.69 -180.87,26.18 -271.32,39.64 2.5,6.92 7.7,20.55 10.19,27.48 -125.97,15.32 -265.59,7.48 -373.18,68.98 3.72,-15.33 7.22,-30.47 10.18,-45.81 45.23,-7.48 116.04,-1.86 122.01,-48.24 123.98,12.15 237.27,-29.72 353.79,-52.9zm3408.58 -94.03c-104.1,-41.88 -204.98,28.6 -304.37,47.66 17.9,5.79 53.43,17.21 71.32,23 80.25,-18.32 159,-40.94 233.05,-70.66zm451.19 -131.23c-99.64,-36.84 -192.05,25.79 -285.98,43.92 90.69,51.79 199.01,-15.69 285.98,-43.92zm-3726.59 -29.36c-93.42,5.05 -181.12,31.59 -270.82,50.48 19.14,16.83 40.5,32.35 70.31,18.51 66.33,-22.07 161.24,-15.9 200.51,-68.99zm2291.75 -30.09c-67.33,22.25 -139.13,35.71 -205.21,60.01 -43.49,24.49 -82.99,53.46 -131.7,72.73 7.47,-12.72 22.86,-37.95 30.57,-50.66 -83.73,26.54 -181.86,36.45 -246.72,88.8 -59.13,38.13 -97.88,89.9 -123.47,144.68 77.77,-18.5 155.28,-37.76 231.06,-59.81 8.45,-30.1 90.69,-82.26 100.62,-22.63 72.54,-21.31 146.1,-40.19 219.89,-58.14 12.42,-68.24 58.14,-128.62 124.97,-174.98zm645.5 -3.92c-83.48,25.97 -183.37,34.01 -241.5,91.79 -95.42,-16.64 -183.12,24.68 -268.83,49.73 40.5,68.6 105.6,126.37 187.83,168.62 76.28,-23.37 154.04,-43.93 231.56,-64.69 -42.99,-23.92 -85.72,-48.22 -124.72,-75.89 82.49,-37.58 132.92,30.65 201.25,51.77 81.25,-16.26 157.28,-43.55 237.03,-63 -86.46,-41.86 -170.18,-90.1 -222.61,-158.33zm-2611.27 2.61c-21.13,-12.71 -38.78,-29.54 -64.61,-37.02 -76.27,13.08 -149.82,33.28 -224.85,49.54 59.13,48.98 150.32,-9.54 218.88,-19.82 17.4,6.36 34.29,13.28 51.18,20.19 -67.83,8.79 -133.92,23.93 -198.76,40.94 40.26,19.44 81.99,36.83 124.72,52.72 -77.52,30.47 -141.86,-16.64 -212.93,-32.16 -75.29,12.54 -148.08,32.54 -220.88,51.79 112.81,46 236.78,83.57 365.73,90.11 60.12,-9.91 117.28,-27.85 175.41,-42.26 33.05,-53.09 113.55,-20.18 170.69,-37.76 57.15,-10.65 118.26,-44.86 173.18,-11.59 -23.86,3.37 -71.82,10.28 -95.66,13.65 3.97,10.85 11.68,32.35 15.66,43.18 -11.18,-12.51 -22.37,-24.85 -33.8,-37.19l6.22 34.21c-118.77,-18.33 -233.56,16.44 -340.38,51.4 219.38,8.23 447.46,21.13 658.39,-34.02 121.25,-48.61 266.6,-44.87 386.85,-97.21 -99.62,1.86 -199.25,11.4 -299.14,7.48 -82.99,-1.31 -166.96,-15.72 -249.45,-2.44l-51.68 15.7c-0.99,-9.53 -2.73,-28.6 -3.72,-38.13 -123.97,-7.67 -236.03,-49.73 -351.05,-81.32zm3675.39 -19.82c-99.37,-37.39 -192.3,24.86 -284.73,46.18 97.89,40.94 196.78,-15.69 284.73,-46.18zm-3245.82 -103.01c-22.37,-7.48 -46.22,-24.67 -72.81,-13.65 -67.33,13.65 -134.16,29.91 -197.01,52.53 91.18,30.3 182.12,-23.56 269.82,-38.88zm3642.35 -21.87c-92.67,-25.25 -176.15,22.05 -260.39,43.55 84.24,46.36 186.34,-8.79 260.39,-43.55zm-1409.98 -39.08c-106.85,25.8 -207.72,60.58 -283,125.26 3.23,-12.89 9.68,-38.51 12.66,-51.42 -72.54,27.11 -165.47,34.02 -216.91,86.38 -45.46,35.14 -63.85,83.01 -79,129.36 66.33,-16.26 134.9,-28.8 197.01,-52.71 27.58,-20.93 53.67,-43.19 87.21,-58.89l6.48 36.64c69.82,-19.44 140.12,-38.7 210.43,-56.84 -7.7,-58.14 15.65,-113.29 65.11,-157.78zm629.08 -10.84c-78.26,22.05 -160.75,40.37 -218.88,87.49 -83.74,-14.2 -158.52,22.44 -234.06,43.37 57.39,64.88 139.14,113.85 227.59,153.11 69.32,-19.44 137.9,-39.63 204.97,-62.82 -46.7,-19.81 -92.92,-40.38 -136.39,-64.11 77.02,-33.48 140.12,26.36 206.96,47.1 69.32,-20.56 138.88,-40.75 208.46,-60.95 -92.68,-40.75 -187.84,-80.94 -258.65,-143.19zm-2597.84 -9.91c-84.25,1.49 -162.51,27.85 -241.76,46.73 57.39,43.93 136.4,-5.98 198.76,-17.75 17.15,6.55 34.05,13.26 50.93,20.37 -58.14,5.99 -114.04,19.45 -168.69,35.53 44.72,17.21 99.63,23.56 131.67,55.34 -74.04,7.67 -141.11,-18.88 -205.97,-41.51 -68.82,17.21 -139.13,32.15 -204.73,56.26 144.6,37.77 297.15,92 453.18,67.69 5.22,5.61 15.4,16.83 20.63,22.42 196.77,3.56 396.77,10.48 589.33,-25.6 9.95,-15.15 19.37,-30.29 28.32,-45.61 123.98,5.23 243.49,-21.5 357.02,-56.09 -140.37,5.98 -281.24,11.6 -421.86,3 -81.99,-9.91 -160.01,16.44 -234.3,38.51 -2.73,8.79 -8.44,25.99 -11.18,34.58 -94.91,-14.21 -185.59,8.42 -272.81,34.4 -3.47,-2.06 -10.18,-5.81 -13.66,-7.67 29.81,-30.09 78.26,-62.25 132.18,-59.45 85.46,3.93 162.24,-29.35 240.99,-48.61 -93.18,-19.06 -189.82,-28.41 -280.01,-55.14 -43.97,-9.54 -87.94,-30.47 -135.4,-17.21 -3.23,-10.08 -9.45,-30.1 -12.66,-40.19zm3622.23 -9.36c-19.88,-5.04 -59.64,-14.95 -79.52,-20 -57.63,20.56 -117.01,38.51 -175.64,57.39 86.2,42.43 174.66,-12.54 255.16,-37.4zm-1940.44 -45.23c-142.12,0.37 -284.25,8.96 -426.35,0.93 -68.57,-5.42 -130.69,20.38 -194.79,33.65 3,7.1 8.94,21.31 11.67,28.61 -104.35,0 -212.42,9.34 -301.86,53.65 197.01,4.87 399.27,10.08 590.83,-31.03 -7.22,-6.93 -21.13,-20.57 -28.32,-27.29 120.24,-1.69 237.02,-27.49 348.82,-58.52zm-1255.7 -41.52c-87.94,-4.29 -174.41,20.02 -249.69,52.54 86.46,18.51 182.12,-12.71 249.69,-52.54zm686.74 32.16c-129.94,-11.59 -256.4,-37.2 -381.39,-65.43 -68.07,8.42 -131.93,30.1 -197.27,46.18 48.46,16.46 99.39,28.23 149.58,41.51 -74.53,28.04 -150.07,-9.16 -220.87,-26.36 -61.38,16.63 -123.74,30.84 -185.11,48.04 128.46,40.95 268.33,67.49 407.97,69.92 53.16,-11.97 133.17,-14.59 149.07,-61.88 96.9,3.74 196.78,-11.4 278.02,-51.97zm2859.96 -60.95c-86.2,-28.6 -165.21,14.03 -241.73,38.88 25.59,7.3 51.67,14.03 77.76,21.13 55.16,-19.24 111.56,-36.82 163.97,-60.01zm-1379.66 -27.85c-90.69,23.36 -180.63,51.77 -236.03,114.22 0.5,-11.97 1.99,-35.71 2.73,-47.5 -67.57,25.62 -158.76,31.79 -196.27,88.05 -32.05,32.53 -29.32,74.41 -32.3,112.73 60.62,-16.44 121,-33.46 181.38,-50.1 8.19,-17.95 20.37,-33.46 36.52,-46.73 23.35,5.23 46.45,11.03 69.06,17.37 52.68,-15.88 105.6,-31.02 159.01,-45.04 -22.61,-48.42 -15.15,-98.15 15.9,-143.01zm901.4 110.66c-106.09,-31.03 -202.99,-75.33 -295.66,-124.12 -50.69,13.08 -99.88,29.34 -148.84,45.61 -5.71,47.11 -56.64,31.04 -97.88,29.35 -52.68,10.65 -101.62,28.98 -151.31,45.43 77.77,55.34 164.73,106.37 266.6,133.86 62.36,-14.4 121.98,-35.34 182.12,-54.41 -53.43,-18.5 -107.84,-36.25 -155.53,-62.62 81.48,-21.87 143.6,33.09 219.88,41.51 62.61,-13.46 120.75,-36.08 180.63,-54.6zm-2808.29 -103.19c-81.25,-36.45 -167.45,18.51 -249.2,28.61 78.51,40.93 168.7,-14.77 249.2,-28.61zm3500.99 -49.91c-83.73,-27.67 -161.75,10.85 -235.54,36.64 79.51,40.94 162.98,-10.84 235.54,-36.64zm-1887.78 -26.55c-141.11,2.24 -281.99,10.48 -422.86,3.75 -59.64,-4.3 -113.81,17.95 -169.7,28.97 2.98,6.92 9.19,20.57 12.17,27.49 -94.16,5.23 -196.27,7.47 -274.29,53.28 188.58,3.18 380.14,5.42 563.98,-30.29 -13.9,-6.16 -41.48,-18.88 -55.39,-25.05 119.51,1.49 235.79,-26.17 346.09,-58.15zm-1241.27 -14.77c-73.3,-34.21 -166.47,6.73 -233.05,36.27 81.73,17.02 157.51,-19.06 233.05,-36.27zm322.25 -40.74c-74.05,-15.15 -142.63,22.79 -211.69,36.82 46.21,18.88 118.51,17.2 152.8,43.37 -74.29,16.84 -148.08,-13.63 -217.91,-28.6 -57.13,14.4 -114.03,28.98 -171.18,43.55 126.22,38.89 263.12,56.1 398.27,64.32 63.11,-4.68 136.42,-17.76 172.68,-60.58 84.48,7.47 164.74,-16.46 237.28,-45.99 -121.5,-12.34 -242.24,-28.41 -360.26,-52.9zm-92.18 -17.21c-68.08,-38.51 -146.34,12.71 -216.91,22.24 61.12,48.24 148.82,-15.69 216.91,-22.24zm1867.89 -23.18c-73.79,21.87 -154.28,41.31 -191.05,99.83 -7.71,-7.67 -22.86,-23.19 -30.58,-30.85 -54.91,18.7 -131.67,25.43 -153.8,74.97 -26.09,33.09 -6.7,69.92 2.49,104.51 53.17,-16.27 106.35,-32.53 159.52,-48.99 5.46,-11.4 16.64,-34.58 22.1,-46.18 65.85,48.05 143.11,-10.47 212.68,-23.18 -31.31,-40.2 -49.2,-85.99 -21.37,-130.11zm889.72 97.95c-105.34,-34.77 -215.4,-63.74 -309.32,-115.35 -51.44,23 -136.16,23.37 -146.1,77.77 -73.3,-17.38 -139.89,13.28 -205.48,33.84 83.24,56.83 185.61,92.72 288.21,125.07 52.92,-16.46 105.6,-33.28 158.02,-50.66 -50.43,-18.51 -102.37,-34.21 -153.05,-52.35 68.32,-34.21 142.37,24.12 210.68,34.22 52.43,-17.58 104.86,-34.96 157.02,-52.54zm621.64 -147.88c-78.77,-21.5 -148.82,12.34 -213.92,41.32 27.33,4.87 54.42,9.53 81.5,14.4 45.71,-16.27 91.93,-32.53 132.43,-55.72zm-3031.41 -23.93c-73.55,-9.91 -163.73,3.37 -215.17,47.11 77.53,6.16 150.32,-18.13 215.17,-47.11zm1209.48 9.34c-148.08,12.91 -297.15,14.03 -446.22,11.6 -44.97,9.53 -121.75,12.71 -118.78,59.07 -82.48,-6.55 -166.7,5.42 -235.78,41.31 196.29,-4.67 414.43,23.94 589.58,-58.12 72.56,-13.46 145.6,-26.18 211.19,-53.86zm-1171.21 -46.73l-13.67 -8.78c-62.36,16.07 24.1,51.77 13.67,8.78zm166.7 -15.88c-43.97,-12.54 -90.69,0.91 -135.65,2.6 -5.71,11.22 -17.15,33.85 -22.86,45.06 29.07,-3.92 87.46,-11.96 116.54,-15.89 -12.43,8.04 -37.02,24.49 -49.45,32.53 53.67,7.11 107.83,14.77 156.27,33.84 -78,9.53 -151.55,-15.15 -226.83,-25.05 -53.17,9.34 -102.62,27.48 -152.32,44.12 139.39,23.94 280.27,48.61 423.62,51.79 44.97,-10.1 111.05,-13.65 124.24,-54.41 81.24,1.12 161.73,-12.34 230.81,-45.8 -152.29,-12.15 -307.84,-35.51 -453.68,-58.89l-10.69 -9.9zm1801.79 -23c-37.76,12.89 -75.77,25.8 -114.03,38.7 -15.16,20.01 -30.81,40.2 -47.45,59.64l-13.92 -41.88c-45.97,21.5 -125.22,23.56 -139.39,70.47 -16.39,35.71 11.18,69.36 31.31,100.02 62.37,-22.44 144.11,-33.84 160.26,-92.91 10.43,7.29 31.31,21.68 41.49,28.97 48.2,-16.07 96.39,-31.78 144.6,-47.3 -36.78,-33.09 -69.09,-70.09 -62.88,-115.72zm560.52 -21.31c-47.45,20.19 -123.23,24.86 -130.18,74.59 -14.17,-3.18 -41.99,-9.91 -55.9,-13.08 -40.5,14.2 -81.25,28.03 -121.99,42.06 89.2,48.61 191.8,79.83 295.16,106.93 42,-11.97 82.49,-0.93 105.34,27.49 70.57,8.04 130.44,-24.49 191.57,-44.49 -59.63,-24.88 -121.5,-11.98 -174.16,16.63 -14.41,-7.29 -28.83,-14.58 -43.24,-21.87l78.27 -19.82c-57.89,-16.64 -119.01,-28.98 -170.69,-56.09 73.79,-5.6 139.39,23.75 209.7,34.77 53.16,-4.67 97.64,-30.84 144.85,-48.04 -113.8,-24.31 -226.09,-54.03 -328.71,-99.09zm-2051 -31.41c-66.83,-34.21 -138.64,10.85 -203.98,24.86 68.57,28.6 138.88,-8.97 203.98,-24.86zm2934.27 -1.12c-71.31,-25.6 -140.63,1.12 -187.59,42.81 -60.12,13.28 -121.99,24.68 -171.92,55.53 20.11,2.97 60.12,8.78 80.23,11.77 35.53,-13.28 71.31,-25.8 107.33,-38.14 6.72,-6.55 20.13,-19.81 26.84,-26.55 54.92,-0.94 100.13,-25.05 145.1,-45.43zm-2755.62 -26.36c21.86,-44.86 -56.91,-41.32 -86.98,-29.72 -35.51,7.48 -69.32,19.81 -98.14,37.57 51.44,1.12 102.87,0.19 154.29,-3 -50.68,60.95 -165.47,26.55 -235.54,70.49 133.42,27.48 271.57,41.12 408.96,48.22 93.42,10.1 150.57,-86.75 245.23,-45.61 -44.73,16.07 -89.44,32.53 -133.66,49.72 140.38,4.5 281.49,-0.17 420.87,-12.14 50.2,-3.17 91.94,-24.67 131.2,-45.98 65.09,-8.42 129.69,-20.01 188.07,-43.76 -126.71,2.44 -253.43,11.41 -380.62,7.11 -51.18,-4.86 -96.91,13.83 -142.63,28.23 -0.5,-11.03 -1.49,-32.9 -1.98,-43.74l-13.91 4.11c-1.5,14.95 -4.23,44.86 -5.48,59.82l-28.55 -12.54 14.9 -45.61c-125.23,-1.86 -246.72,-25.8 -370.21,-37.57 -16.39,3.55 -49.44,10.85 -65.83,14.4zm1743.16 -63.37c-32.55,12.52 -65.35,24.85 -98.65,36.64 -5.47,13.09 -16.4,38.89 -21.86,51.79 -10.2,-8.04 -30.57,-24.49 -40.75,-32.53 -33.54,14.95 -75.29,22.62 -101.86,45.25 -21.12,41.11 24.1,75.9 48.94,108.6 38.27,-12.15 76.03,-24.49 114.55,-35.7 4.71,-15.52 9.68,-30.85 15.65,-45.81 13.16,5.24 39.75,16.07 52.92,21.31 41.24,-14.21 82.25,-28.41 123.23,-42.43 -44.47,-28.43 -79.49,-63.57 -92.17,-107.12zm871.08 67.86c-115.77,-24.31 -232.31,-48.99 -340.38,-89.93 -39.76,19.07 -102.61,26.36 -107.33,68.99 -13.92,-2.82 -41.75,-8.42 -55.66,-11.22 -33.54,13.46 -67.07,26.92 -100.87,40.19 92.92,39.45 192.79,69.35 295.41,91.04 56.4,16.07 102.61,-23.36 150.06,-39.07 -58.63,-11.4 -117.01,-23.93 -174.15,-39.08 58.12,-22.81 116.27,9.17 173.92,17.58 59.13,21.13 108.81,-21.31 159,-38.51zm-1388.82 -104.69c-93.67,0.79 -192.57,-14.84 -275.57,19.26 -3.74,7.67 -11.19,23 -14.92,30.66 -35.03,1.49 -70.56,0.38 -104.84,7.3 2.73,-8.04 8.2,-24.49 10.93,-32.53 33.54,-3.74 64.6,-14.39 94.91,-24.86 -68.23,-8.28 -137.1,-12.63 -205.7,-18.64 -3.63,-28.13 -8.15,-56.09 -12.88,-84.06 -51.18,10.66 -108.07,17.95 -146.1,48.8 44.73,1.11 88.7,-2.81 131.69,-11.6 6.23,11.55 18.06,33.18 25.45,46.7 -37.7,-3.32 -75.31,-7.15 -112.72,-12.42 -68.58,-12.89 -138.14,-5.41 -198.76,22.81 50.68,10.48 101.36,20.19 151.55,31.04 -64.1,14.58 -130.19,3.18 -193.79,-7.67 -37.27,-7.1 -72.81,-2.43 -106.6,13.84 -14.4,-5.42 -28.82,-11.03 -43.22,-16.84l67.07 -21.86c-71.55,-13.1 -136.9,14.39 -199.75,35.7 41.24,6.53 84.22,10.65 123.97,-3.93 3,7.11 8.95,21.5 12.18,28.61 143.86,7.85 290.7,42.99 433.06,30.09 116.03,24.49 239.02,20.76 356.29,3.18 69.82,-4.67 143.1,-5.81 206.22,-31.59 -15.66,-4.11 -46.72,-12.34 -62.37,-16.64 55.16,-0.19 110.31,-3.92 165.22,-7.48l3.97 -24.92c37.63,-0.38 75.34,-0.96 112.37,2.43 -37.77,13.65 -78.27,21.5 -119.27,28.23 12.42,-0.38 37.02,-1.31 49.45,-1.68l-5.22 32.7c34.79,-8.78 69.06,-17.94 103.6,-27.11 -8.19,-16.44 -16.64,-33.09 -24.84,-49.35 60.38,-1.87 120.5,-6.92 180.37,-12.91 69.32,-27.85 146.1,-44.12 211.45,-77.4 -134.17,2.44 -267.84,17.4 -402.5,10.29l-1.24 8.79c-39.25,0 -56.9,14.2 -52.92,42.44 -27.58,0 -55.16,1.11 -82.74,3.18 15.66,-8.99 97.41,-39.46 32.3,-40.02l29.81 -12.71c-128.94,-5.6 -256.9,-19.24 -385.34,-30.66 -48.21,-6.72 -90.19,15.52 -127.95,34.96 48.43,5.05 96.89,8.97 145.59,12.34 0.24,4.87 0.74,14.77 0.99,19.63 -76.52,-8.21 -152.31,-21.5 -229.82,-24.3 -7.94,10.66 -24.1,31.96 -32.05,42.62 137.39,7.11 280.75,40.2 415.65,20.02 25.1,8.26 50.86,12.95 77.01,15.58zm1883.26 -22.07c-41.1,-5.79 -102.01,-7.81 -134.92,13.52 -104.53,-17.6 -206.15,-43.45 -307.77,-68.54 -40.5,1.31 -92.67,24.3 -89.45,59.82 -52.41,-19.26 -99.37,7.29 -144.34,26.17 100.13,34.96 204.97,62.25 312.3,82.26 30.39,9.46 56.55,-0.14 80.96,-13.13 56.64,5.16 116.84,-10.29 145.83,-49.62 51.67,-6.73 99.12,-23.74 137.39,-50.48zm-157.57 48.03l-0.2 1.53 -2.69 -0.09 2.89 -1.43zm-74.58 9.39c-12.3,3.1 -24.27,6.99 -35.9,11.52 -48.11,-7.4 -98.48,-12.11 -135.9,-37.97 58.54,3.34 115.28,14.84 171.79,26.45zm-2426.84 -93.67c-59.37,-5.79 -135.16,1.49 -167.44,44.86 21.6,-2.8 64.84,-8.6 86.46,-11.4 1.49,9.91 4.48,29.73 5.97,39.63m216 -49.97c-47.07,-7.18 -94.11,-14.55 -140.98,-23.12m1667.4 -35.16c-45.97,16.64 -99.14,31.59 -94.17,79.09 -10.19,-7.85 -30.57,-23.37 -40.74,-31.04 -30.07,16.64 -74.8,22.99 -92.18,50.1 6.95,39.45 48.69,65.81 82.99,92.91 35.27,-12.7 70.56,-25.42 106.08,-37.94 -4.46,-8.41 -13.41,-25.05 -17.89,-33.27 60.88,22.24 117.77,-0.75 172.68,-21.13 -46.47,-27.48 -89.95,-58.52 -116.77,-98.72zm1220.22 26.11c-64.35,-19.27 -120.5,6.92 -172.68,31.77 64.35,24.12 124.48,2.26 172.68,-31.77zm109.07 -52.35c-60.12,-12.71 -120.25,-0.93 -158.76,37.21 61.86,14.95 116.03,-5.62 158.76,-37.21zm-2554.37 -21.12c-59.88,-4.87 -115.29,12.52 -168.21,31.59 59.13,22.05 125.22,1.86 168.21,-31.59zm1587.39 -38.88c-40.26,16.07 -83.73,32.52 -68.58,73.46 -41.51,-38.32 -90.69,-10.65 -130.69,13.66 30.06,34.39 68.58,63.93 112.05,88.6 29.33,-10.45 58.89,-20.75 88.46,-30.65 -1.75,-11.04 -5.71,-33.28 -7.7,-44.32 12.18,6.18 36.27,18.51 48.2,24.68 32.55,-12.34 65.1,-24.48 97.89,-36.45 -51.68,-25.05 -101.12,-52.72 -139.63,-88.98zm833.07 45.97c-119.51,-19.24 -240.01,-37.93 -354.55,-70.84 -25.1,9.36 -50.19,18.88 -75.29,28.23 5.97,8.22 17.39,24.86 23.36,33.1 -16.9,-3.56 -50.43,-10.66 -67.09,-14.21 -21.61,13.65 -56.9,19.26 -66.83,41.32 111.55,30.47 225.59,56.83 342.38,72.52 28.31,-11.4 54.65,-25.23 80.74,-38.87 -61.37,-9.54 -123.49,-17.21 -182.87,-32.91 68.32,-8.6 133.92,11.03 200.25,19.07 39.76,2.8 67.09,-25.62 99.88,-37.4zm-6795.54 41.96c-1.21,11.48 -6.14,19 -13.29,24.05l-11.59 2.52c-26.59,5.05 -54.05,13.6 -81.46,6.6 17.66,-30.03 71.6,-20.91 106.34,-33.18zm-163.59 79.62c-6.87,7.02 -13.06,14.66 -18.54,22.78 -36.97,8.87 -73.63,18.65 -109.94,29.33 1.68,-8.68 5.02,-26.45 6.7,-35.13 41.31,-2.22 81.73,-8.74 121.79,-16.98zm108.19 10.01l0 0c-21.63,17.96 -60,29.49 -88.77,18.09 0.49,-27.71 81.98,-52.67 88.77,-18.09zm970.55 -34.37c-45.1,-17.82 -77.78,-51.24 -107.91,-85.05 -29.69,4.65 -59.44,10.03 -88.55,17.91 -29.05,1.49 -57.93,3.2 -87.01,5.27 24.85,60.79 94.42,118.19 167.93,81.78 -25.77,-15.5 -51,-32.47 -72.66,-52.56 61.96,16.95 121.96,52.49 188.2,32.64zm-830.52 -126.08c-51.88,-19.97 -102.3,-75.46 -161.94,-59.82 7.05,12.88 21.36,39.01 28.41,52.06 -38.75,-18.68 -80.67,-31.02 -124.1,-37.09 28.53,44.37 80.78,65.13 134.48,74.18 31.1,-30.4 80.5,-19.98 121.34,-21.76 -32.4,10.26 -68.97,14.04 -97,33.61 83.97,14.19 168.3,2.56 249,-17.05 -48.43,-15.43 -99.47,-20.53 -150.19,-24.12zm734.79 -24.26c-66.32,23.98 -163.92,6.77 -192.11,81.98 29.95,-5.18 59.71,-10.58 89.08,-16.56 50.87,-1.46 102.58,-8.66 103.03,-65.42zm-515.65 -27.69c-54.39,-19.97 -108.75,-40.31 -162.36,-62.67 2.39,19.47 4.81,38.76 7,58.23 -23.68,-12.18 -47.77,-24.56 -71.64,-37.12 -16.2,3.72 -32.62,7.44 -49.27,11.32 76.21,58.61 190.79,84.91 276.27,30.24zm518.07 -44.86c-25.59,-14.93 -57.22,-15.67 -86.51,-13.81 1.13,4.76 3.18,14.1 4.31,18.85 27.2,13.17 54.4,14.17 81.85,2.61l0.35 -7.66zm453.78 -5.55c-47.61,11.63 -97.04,16.38 -144.48,28.39 -26.84,23.57 1.62,51.46 16.21,73.48 33.47,34.05 87.56,40.68 127.92,66.02 17.28,-6.83 34.54,-13.67 51.6,-20.52 -33.13,-9.1 -65.59,-21.7 -89.74,-45.15 59.78,17.91 119.4,38.24 182.35,44.01 0.32,-4.66 1.19,-13.77 1.5,-18.26 -53.64,-9.97 -93.44,-46.34 -137.49,-73.26 -37.45,10.47 -75.61,22.01 -116.02,20.64 36.53,-38.83 129.74,1.89 108.14,-75.37zm611.11 48.7c-56.1,-10.91 -103.21,-41.98 -156.23,-60.73 -47.15,-6.71 -88.35,21.29 -126.13,42.23 48.83,15.64 97.86,31.29 148.37,40.86 -9.32,-10.58 -27.94,-32.15 -37.26,-42.73l-2.37 -5.05c55.32,21.73 113.75,35.24 172.93,44.11 0.32,-4.66 0.57,-14.02 0.69,-18.69zm-964.95 -115.35c-42.34,-12.56 -85.37,-24.04 -128.71,-34.23 -52.18,11.11 -105.53,2.84 -158.26,-2.02 24.76,17.69 52.87,29.62 84.12,35.76 -12.77,8.47 -25.53,16.94 -38.52,25.38 -42.92,-13.16 -86.47,-26.17 -127.34,-44.62 -14,5.18 -28.04,10.76 -42.07,16.32 11.67,1.2 35.02,3.42 46.48,4.42l0.13 18.94c-43.73,-7.6 -87.24,-15.36 -131.62,-19.81 72.17,41.47 161.2,79.25 247.19,55.72 12.06,-7.19 36.35,-21.42 48.41,-28.62 3.28,-2.01 9.66,-6.06 12.94,-8.07 39.91,-0.54 79.59,2.08 119.1,1.12 22.92,-6.63 45.47,-14.03 68.15,-20.28zm399.59 -7.52c-62.69,-0.5 -136.44,-34.76 -192.42,0.44 -0.15,5.05 -0.46,15.33 -0.83,20.56 65.72,2.21 130.96,-3.48 193.26,-21zm579.5 20.79c-15.23,-66.48 -92.46,-30.74 -139.9,-24.54 -21.52,73.08 99.21,15.28 139.9,24.54zm-398.24 -88.73c-85.15,-47.4 -170.67,-42.01 -264.96,-39 73.32,34.05 155.67,44.57 236.23,32.83 -19.57,62.9 -105.2,24.98 -158.53,34.14 -47.33,-18.72 -96.74,-32.15 -146.18,-45.21 -16.31,-0.77 -49.36,-2.19 -65.88,-2.97 -5.77,-31.15 -15.27,-30.31 -28.46,1.91 -14.93,-2.54 -44.99,-7.68 -59.9,-10.42 -1.95,3.99 -5.68,12.15 -7.42,16.16 82.62,21.41 164.84,51.4 252.32,45.6 75.67,27.85 157.9,24.86 235.64,8.63 -4.36,8.3 -12.67,24.96 -16.83,33.11 -108,-0.72 -210.6,32.13 -316.73,43.36 -30.3,7.23 -54.91,-9.7 -77.96,-25.01 -24.96,-0.27 -74.88,-0.43 -99.84,-0.51 32.79,-27.48 76.45,-36.75 118.99,-18.19 0.06,-9.73 0.19,-29.22 0.24,-38.96 -73.49,-5.02 -157.65,-58.01 -225.59,-17.09 -14.27,-2.89 -42.84,-8.47 -57.11,-11.34l-2.36 12.39c59.59,17.9 119.95,33.6 180.59,48.39 -16.5,19.64 -37.54,26.39 -63.54,20.24 6.28,6.07 18.86,18.03 25.15,24.09 30.67,2.35 61.41,3.97 91.74,5l-4.46 15.81c-5.03,2.82 -15.06,8.11 -19.87,10.77 -105.77,15.2 -210.13,37.23 -315.76,53.36 -88.52,14.36 -175.52,43.05 -266.78,40.15 5.04,-9.01 15.32,-26.64 20.56,-35.65 74.8,-1.45 152.2,1.78 221.43,-27.62 -62.53,-8.73 -125.73,-14.14 -189.1,-10.95l6.01 -19.81c-53.38,-13.53 -105.46,-30.89 -156.49,-50.81 -8.78,5.56 -25.96,16.91 -34.54,22.68 -26.99,-0.98 -53.84,-1.01 -80.98,-0.12 65.39,54.3 156.16,73.27 242.3,62.69 -14.47,53.14 -74.79,25.06 -114.6,27.32 -49.89,-9.53 -92.81,18.72 -136.13,34.97 65.33,10.62 130.88,-2.37 195.97,2.61 -26.34,13.69 -53.62,28.63 -81.85,45 41.86,-22.15 76.96,-11.23 113.73,3 -42.45,6.93 -73.18,37.74 -71.92,76.25 -10.41,40.31 39.11,64.06 62.74,91.96 24.81,-6.67 49.79,-12.96 74.56,-18.9 -30.21,-11.88 -42.78,-35.83 -47.54,-63.52 30.13,19 59.35,39.07 88.79,58.76 20.91,-4.89 41.59,-9.61 62.09,-14.53 -25.9,-28.26 -49.37,-58.42 -70.65,-89.72 -26.69,6.35 -53.8,13.06 -80.34,20.35 -14.76,-1.98 -44.27,-5.93 -59.03,-7.92 42.14,-14.26 87.13,-15.76 131.69,-16.72 12.83,-21.02 25.64,-42.05 38.45,-63.07 -41.86,10.54 -83.53,21.27 -126.46,28.91 1.02,-8.53 3.49,-25.6 4.72,-34.15 193.35,-7.48 379.2,-81.1 571.96,-83.2 -10.74,12.55 -25.8,20.65 -45.17,24.54 -47.85,-5.46 -99.86,5.86 -111.99,55.79 22.7,-3.64 67.7,-10.95 90.41,-14.59 20.11,-2.51 40.21,-4.83 60.3,-7.16 -0.71,4.06 -1.9,12.04 -2.39,16.13 -47.02,6.23 -94.26,12.63 -141.65,18.09 44,51.28 124.35,110.57 195.89,66.15 -15.62,-1.48 -46.69,-4.23 -62.11,-5.7l-6.04 -42.22c48.83,33.63 110.86,34.65 168.29,41.33 -48.79,-28 -93.7,-60.6 -139.05,-92.68 3.84,-15.66 11.29,-46.8 15.1,-62.26l9.37 -13.59c89.13,-17.3 179.86,-27.57 268,-48.5 10.57,7.68 21.14,15.55 31.29,23.38 -17.93,13.17 -20.28,28.56 -7.05,46.18 36.9,-11.45 74.66,-20.2 112.69,-26.88l-5.07 24.19c-37.74,-9.43 -68.75,-3.93 -93.06,16.46 48.22,38.83 111.42,53.06 171.31,69.66l-25.96 -39.32c55.63,8.63 113.96,29.24 168.87,9.33 -16.34,-3.23 -48.83,-9.64 -65.19,-12.69 -39.48,-26.22 -82.66,-47.45 -127.08,-66.15 -1.46,-11.9 -4.6,-35.75 -6.28,-47.67 -36.21,7.75 -72.39,14.93 -109.34,21.31 0.72,-7.26 2.35,-21.39 3.08,-28.65 75.23,-1.62 147.81,-19.35 221.5,-28.75 -16.31,17.03 -33.43,33.63 -51.35,49.6 46.33,30.07 107.06,-6.86 160.2,4.21 -8.52,-12.96 -25.34,-39.08 -33.65,-52.24 -18.34,7.33 -55.28,22.15 -73.83,29.45 4.35,-14.12 8.49,-28.26 12.63,-42.21 68.75,1.11 134.9,-17.64 203.42,-19.34 1.33,-7.03 4.21,-20.87 5.55,-27.91 -97.47,16.34 -196.75,25.8 -291.9,51.12 -14.93,-11.55 -29.8,-23.66 -44.25,-36.12 57.72,-9.03 126.62,10.64 176.04,-23.52 -52.67,-5.98 -106.83,-14.32 -159.61,-3.8zm759.78 25.86c-42.84,-46.88 -105.65,-24.9 -160.22,-15.84 39.55,51.72 106.1,24.38 160.22,15.84zm317.59 15.91c-72.35,-18.42 -153.27,-51.89 -223.03,-9.03 52.73,10.86 105.82,37.67 160.93,29.77 40.82,39.81 100.2,15.89 150.26,14.19l-2.39 -16.48c-28.54,-5.96 -57.29,-11.74 -85.76,-18.45zm-162.61 -41.49c-27.85,-26.01 -233.85,-63.1 -95.22,20.25 31.94,-6.55 63.67,-13.3 95.22,-20.25zm-287.84 168.74c-70.83,-25.08 -140.61,-52.87 -211.91,-77.24 -12.87,4.15 -38.64,12.27 -51.72,16.4 -17.61,-0.3 -52.83,-0.74 -70.42,-1.04 36.68,35.95 90.15,51.36 141.17,62.66l4.16 -11.52c-3.34,-9.04 -10.25,-27.15 -13.59,-36.2 22.74,13.61 47.09,25.45 72.48,34.37l-9.55 4.57c-7.08,2.12 -21.01,6.38 -28.1,8.51 21.14,18.55 58.49,6.57 75.26,-10.99 30.75,4.24 61.35,7.73 92.22,10.48zm-345.03 36.86c-60.7,-34.66 -9.99,61.13 0,0zm-1425.88 -85.95l-2.83 -1.39 -2.65 -1.21 -2.5 -1.04 -2.32 -0.88 -2.17 -0.72 -2.01 -0.57 -1.86 -0.43 -1.71 -0.28 -1.58 -0.15 -1.43 -0.03 -1.3 0.1 -1.18 0.21 -1.04 0.3 -0.91 0.42 -0.81 0.5c-0.24,0.19 -0.46,0.39 -0.67,0.6l-0.58 0.67 -0.45 0.75 -0.37 0.81 -0.25 0.88 -0.16 0.94 -0.07 0.97 0.02 1.02 0.09 1.06 0.19 1.09 0.27 1.1 0.32 1.13 0.4 1.13 0.47 1.13 0.52 1.14 0.59 1.12 0.64 1.11 0.69 1.09 0.74 1.05 0.77 1.02 0.81 0.98 0.84 0.94 0.88 0.88 0.9 0.81 0.94 0.75 0.94 0.68 0.96 0.59 0.97 0.51 0.97 0.42 0.98 0.31 0.97 0.21 0.98 0.09 0.96 -0.01 0.95 -0.15 0.94 -0.28 0.91 -0.42 0.89 -0.57 0.87 -0.72 0.83 -0.88 0.79 -1.03 0.76 -1.2 0.71 -1.39 0.66 -1.56 0.6 -1.76 0.57 -1.95 0.5 -2.16 0.42 -2.36 0.37 -2.59 0.29 -2.8zm2155.29 -31.1c-110.86,-10.85 -215.31,-82.33 -327.75,-41.19l1.93 11.19c13.63,9.03 40.67,27.25 54.31,36.27 -77.15,-24.76 -155.72,-41.19 -237.21,-31.04 22.22,-2.54 67.07,-7.81 89.29,-10.54 -39.48,-55.83 -107.31,-28.22 -164.56,-19.71 58.47,75.16 168.67,94.96 261.28,117.63 45.02,10.3 73.24,-32.87 50.51,-67.46 88.38,20.12 187.62,49.65 272.21,4.83zm-3007.89 222.63l0 0c-14.83,10.94 -14.83,10.94 0,0zm5242.74 -134.96c-48.95,-40.58 -128.22,-13.29 -175.17,14.95 -50.19,9.71 -102.61,19.06 -142.87,45.23 42.73,3 86.72,2.63 125.48,-13.63 4.22,7.47 12.42,22.61 16.64,30.09 128.2,7.48 255.42,23.93 384.12,24.68 39.01,1.69 79.51,-12.34 96.39,-39.45 49.95,-4.12 100.14,-12.34 138.15,-38.52 -148.33,0.38 -294.42,-26.36 -442.74,-23.35zm1489.24 -61.33c-19.14,6.92 -38.02,14.03 -57.14,20.94 46.2,59.44 -54.92,6.35 -78.27,36.82 -7.46,4.12 -21.87,12.52 -29.07,16.83 30.31,37.39 80.25,61.13 127.21,85.06 24.84,-10.28 49.44,-20.75 74.29,-31.03 -5.46,-9.17 -15.9,-27.48 -21.12,-36.82 22.35,6.53 44.47,13.26 66.83,20 23.11,-11.96 46.47,-23.94 69.57,-35.9 -54.41,-20.93 -107.09,-44.67 -152.31,-75.9zm775.17 31.41c-107.33,-14.4 -212.93,-34.4 -318.52,-54.78 -47.45,-14.77 -63.61,21.68 -66.58,49.36 -41.25,-10.1 -76.03,5.6 -107.83,24.11 115.52,29.17 233.79,53.66 354.29,68.43 25.59,-9.73 49.44,-21.87 71.06,-36.08 -59.13,-12.52 -126.47,-9.17 -179.63,-35.14 62.85,0.37 123.47,12.71 184.59,21.3 33.79,-11.4 70.08,-10.28 101.87,3.56 -39.5,17.01 -79.51,34.02 -117.77,52.71 25.84,4.86 51.68,9.92 77.52,14.95 22.37,-15.14 45.71,-30.09 55.42,-52.33 43.47,-0.38 78.75,-17.76 108.31,-40.4 -41.48,-8.96 -77.76,-4.66 -108.57,13.1 -18.39,-9.36 -36.28,-19.08 -54.17,-28.8zm-1525.26 -52.91c-135.91,-4.87 -271.06,-16.27 -406.47,-24.31 -15.66,7.1 -46.47,21.5 -61.87,28.6 54.91,7.68 110.57,11.03 164.47,22.25 -92.92,18.32 -214.41,-47.67 -282.74,22.44 126.22,9.34 252.43,20.56 379.4,22.25 40,5.41 67.09,-18.7 94.16,-35.9 39.26,-8.41 83.74,-11.59 113.06,-35.33zm438.52 -10.65c-115.53,1.68 -230.56,9.53 -346.1,11.59 -69.06,19.26 -135.16,46.93 -201.49,72.16 82.25,9.53 181.38,-27.29 247.71,23.18 -131.69,14.58 -267.1,2.06 -397.53,20.56 -4.22,6.73 -12.92,20.01 -17.15,26.74 -44.96,11.4 -106.34,2.43 -128.45,44.12 116.28,-2.61 233.56,-3.75 348.34,-19.63 69.57,-19.45 134.42,-47.87 205.97,-63.94 3.48,-10.1 10.44,-30.1 13.92,-40.19 100.88,-2.82 183.61,-48.62 274.79,-74.59zm-891.71 -25.62c-41.24,-5.79 -79.25,-0.75 -113.54,15.14 -49.2,23.37 -111.56,27.86 -153.3,60.39 98.39,3.37 181.88,-44.69 266.84,-75.53zm2339.47 -8.42c-49.44,-8.22 -121.5,-15.32 -125.72,37.77 -16.4,1.49 -48.95,4.3 -65.1,5.79 -1.73,9.53 -5.47,28.41 -7.2,37.94 41.25,-5.41 99.88,-0.56 110.56,-40.75 29.83,-12.89 59.38,-25.97 87.46,-40.75zm-738.91 30.1c-77.77,-14.03 -140.38,-86.18 -224.36,-57.77 10.44,15.7 20.63,31.59 31.06,47.48 -41.49,-20.94 -82.98,-21.5 -119.75,7.66 61.86,38.14 137.9,97.98 222.62,56.27 -10.94,-8.04 -32.3,-24.11 -42.99,-32.15 48.94,10.65 94.91,3.93 133.42,-21.5zm-892.7 -87.5c-113.06,-3.35 -226.09,-6.72 -338.65,-16.63 -44.96,-8.6 -86.95,4.12 -122.99,24.11 48.7,3.75 97.4,7.1 146.1,9.92l-1.24 10.84c-82.99,-4.12 -169.7,-20.01 -248.71,8.97 136.9,33.84 285.47,25.99 427.84,28.22 30.31,-37.57 96.9,-36.82 137.64,-65.43zm381.13 9.54c-2.49,-5.42 -7.46,-16.46 -9.93,-22.05 -107.6,15.14 -218.89,3.92 -325.73,20.56 -1.25,6.92 -3.23,20.93 -4.22,27.85 -42.74,1.12 -85.22,8.42 -119.01,29.36 69.56,3.74 139.87,2.06 208.94,-4.5 75.04,-0.37 158.53,-1.31 208.46,-50.48 10.44,-0.17 31.05,-0.56 41.49,-0.74zm1117.8 33.46c-124.97,-11.58 -247.46,-33.27 -369.95,-53.65 -25.84,10.85 -38.01,27.29 -36.76,49.73 -33.29,-8.22 -63.11,4.68 -92.18,16.26 117.52,34.4 242.99,55.34 368.46,64.13 13.16,-7.85 40,-23.73 53.42,-31.78 -59.87,-8.79 -125.96,-5.79 -178.88,-32.15 85.96,-4.3 189.82,51.03 255.9,-12.54zm223.87 -50.27c-50.69,-17.4 -98.39,-8.42 -125.72,27.1 45.22,0.75 96.65,6.73 125.72,-27.1zm-2172.75 -11.41c-43.73,-25.6 -96.9,-7.85 -130.93,19.07 -39.26,6.36 -76.04,19.06 -108.34,37.2 50.7,6.53 101.88,1.87 138.15,-28.23 34.03,-8.97 67.83,-18.33 101.12,-28.04zm2229.89 -35.53c-46.21,-1.68 -101.62,-10.65 -124.47,30.1 50.92,14.95 93.16,-0.37 124.47,-30.1zm-691.46 35.34c-61.86,-18.13 -121.74,-40.01 -182.12,-60.96 -59.87,2.26 -34.77,31.61 -7.7,52.92 -39.99,-15.52 -80,-23.74 -103.35,12.51 62.85,20.39 135.66,84.33 204.97,47.11 -3.72,-8.41 -11.17,-25.23 -14.91,-33.65 38.02,9.74 75.29,4.5 103.11,-17.94zm-1421.16 -36.28c-3.24,-15.14 -6.96,-30.09 -11.18,-44.86 -32.3,13.84 -64.6,28.04 -95.92,43.38 35.79,1.12 71.32,1.48 107.1,1.48zm550.83 -39.44c-129.71,-0.94 -259.39,-6.74 -388.6,-15.7 -12.66,6.35 -38.26,19.07 -51.17,25.43 50.69,3.74 101.12,6.92 151.81,9.9l-1.24 9.34c-81.75,0.57 -175.67,-28.97 -244.98,16.83 132.68,10.1 266.34,21.5 399.76,16.07 46.21,-18.87 90.69,-40.19 134.43,-61.87zm1431.59 33.28c-128.7,-11.78 -255.42,-40.38 -384.11,-45.24 -0.25,9.16 -0.75,27.28 -0.99,36.45 -20.13,2.24 -60.62,7.1 -80.76,9.34 37.52,31.96 96.4,33.84 147.59,43.37 72.05,9.73 143.61,23.37 216.91,25.8 9.44,-7.66 28.07,-22.82 37.52,-30.47 -50.69,-5.98 -101.62,-11.03 -152.56,-14.77 0.25,-4.49 0.51,-13.28 0.75,-17.76 72.06,6.73 161.5,48.05 215.66,-6.72zm-1900.93 -40.02c-8.2,-25.79 -28.58,-28.77 -61.12,-8.78 15.39,20.38 35.77,23.19 61.12,8.78zm842.51 -7.84c-102.13,10.66 -205.48,12.15 -308.35,16.83 -46.2,18.32 -89.68,40.75 -132.67,63.37 150.81,-8.97 323.48,6.73 441.01,-80.2zm-534.93 -12.71c6.71,-14.21 12.43,-28.41 17.38,-42.81 -61.86,-4.67 -126.2,-3.55 -179.12,23.93 53.9,6.92 108.07,11.96 161.74,18.88zm1822.92 -32.16c-20.87,-1.31 -62.87,-3.92 -83.74,-5.24 -2.49,8.6 -7.45,25.43 -9.93,34.03 -19.38,11.59 -38.75,23.56 -57.89,35.7 28.82,2.06 57.39,3.93 85.97,5.98 21.12,-23.92 43.47,-47.1 65.59,-70.47zm-635.31 51.6c-53.91,-42.81 -138.38,-48.24 -205.97,-74.04 -13.66,27.86 -48.44,42.26 -77.26,60.02 67.07,27.48 136.39,64.13 217.15,57.77 -5.22,-8.23 -15.66,-25.06 -20.87,-33.47 21.87,-2.61 65.34,-7.67 86.95,-10.28zm508.1 -61.7c-127.22,-7.29 -251.69,-31.59 -379.14,-37.94 5.71,8.79 17.64,26.37 23.35,35.14 -27.82,1.68 -52.68,8.97 -75.03,21.87 50.43,11.22 101.62,20.94 153.8,25.99 70.81,14.95 143.86,22.07 216.65,28.23 10.19,-15.89 20.13,-31.98 30.07,-48.05l14.17 0.95c3.97,-6.55 12.17,-19.64 16.14,-26.18zm-1835.1 -42.62c-53.66,16.07 -102.36,40.56 -152.05,62.99 70.31,14.02 123.24,-23.18 181.12,-45.61 -7.2,-4.3 -21.63,-13.08 -29.07,-17.38zm1445.03 9.54c-56.41,-32.53 -128.96,-40.2 -192.55,-61.52 -28.58,-29.91 -101.88,52.55 -52.43,62.08 60.62,23.18 125.48,39.25 192.8,46.36 -6.71,-8.79 -20.62,-26.37 -27.33,-35.14 19.87,-3 59.62,-8.8 79.51,-11.77zm595.3 -44.7c-20.38,-2.98 -61.12,-8.59 -81.5,-11.59 -14.17,23.37 -28.82,46.55 -44.23,69.73 22.12,-0.56 66.35,-1.31 88.46,-1.68l-8.94 -21.13c-9.95,-5.05 -30.32,-15.32 -40.5,-20.38 31.05,6.53 67.83,10.28 86.71,-14.96zm-1848.26 -38.13c-62.87,-13.28 -108.34,23.74 -156.04,46.55 20.38,4.12 40.75,8.04 61.13,11.96 31.55,-19.61 63.61,-38.7 94.91,-58.51zm750.59 -2.81c-110.33,22.25 -245.48,-10.84 -334.67,51.79 -0.51,-10.85 -1.5,-32.35 -2,-43.18 -130.93,21.88 -264.6,-3.56 -396.78,2.61 33.29,41.69 108.08,20.94 160.76,32.53 -58.89,5.23 -118.02,-0.57 -176.42,-7.67 -12.66,6.55 -38.26,19.64 -51.17,26.17 124.23,8.22 249.19,13.09 373.92,10.48 12.43,-8.04 37.27,-24.31 49.69,-32.35 13.43,11.22 26.84,22.62 40.26,34.02 65.58,-5.24 131.43,-9.36 197.03,-14.58 -3.48,8.23 -10.69,24.86 -14.42,33.28 -119,7.85 -256.64,-17.01 -348.58,56.83 4.48,-12.91 13.17,-38.88 17.65,-51.97 -136.4,10.08 -273.05,-18.5 -408.46,-2.43 40.98,13.46 85.46,17.58 128.94,22.62 4.46,10.27 13.17,30.66 17.39,40.94 58.14,-0.19 116.02,0.57 173.91,0.37 17.15,-17.2 38.52,-30.66 64.11,-40.37 1.99,10.1 5.47,30.47 7.45,40.75 86.23,-11.03 208.21,15.89 263.61,-45.44 0.75,7.11 2.23,20.94 2.97,27.86 95.16,-27.66 148.58,-101.88 234.81,-142.27zm967.23 26.74c-125.96,-8.97 -250.44,-25.8 -376.4,-34.77 10.94,7.85 33.04,23.94 44.23,31.98 -27.84,1.31 -53.19,8.04 -75.78,20.18 125.96,26 256.41,41.32 386.85,45.99 -47.22,-37.57 -121.99,-34.39 -181.89,-53.47 59.14,4.5 116.04,18.53 174.67,25.8 7.22,-8.96 21.12,-26.92 28.32,-35.7zm16.41 -44.49c-37.52,-12.72 -84.98,-10.28 -123.49,-0.94l-0.5 6.92c34.03,7.3 108.57,23.56 123.98,-5.98zm-1217.68 -41.88c-125.23,11.96 -257.42,-21.5 -377.91,5.79 -11.68,11.02 -35.54,32.9 -47.45,43.93 112.53,7.85 225.83,6.9 338.63,3.17l20.13 3.18c22.1,-18.88 44.22,-37.58 66.59,-56.08zm797.04 40.75c-71.56,-10.66 -141.38,-26.74 -209.7,-45.61 -9.69,17.75 -18.87,35.88 -26.83,54.39 64.36,27.67 137.9,40.01 209.19,53.09l-1.24 -31.59 -35.28 0.94 -0.5 -11.22c15.42,2.06 46.45,6.36 61.87,8.42l2.49 -28.41zm546.84 -37.57c-14.4,-0.95 -43.47,-2.81 -57.88,-3.93 -7.7,21.5 -16.14,42.81 -24.61,64.13 24.35,1.86 48.95,3.74 73.31,5.79 2.97,-22.05 6.21,-44.12 9.18,-65.99zm-1752.36 -21.7c-53.17,2.24 -91.93,29.73 -133.17,51.6 57.64,23.55 111.55,-12.52 133.17,-51.6zm717.79 0.56c-76.78,7.3 -153.79,11.78 -230.56,18.13 -43.23,-1.68 -61.13,32.73 -87.72,51.6 106.85,-14.77 255.43,14.4 318.28,-69.73zm764 9.16c-60.62,-12.7 -123.49,-16.44 -185.1,-24.85 -3.47,14.58 -10.43,43.75 -13.9,58.33 59.37,-0.76 134.16,33.64 182.11,10.84 4.23,-11.03 12.67,-33.28 16.9,-44.32zm175.41 15.9c-58.89,-10.28 -118.51,-16.64 -178.4,-21.31 7.2,8.41 21.37,25.43 28.58,33.83 48.46,15.33 108.82,14.41 149.82,-12.51zm-1186.12 -80.2c-112.56,2.24 -225.36,1.49 -337.92,-1.69 -15.89,15.33 -31.54,31.03 -47.2,46.93 116.52,2.98 232.81,5.04 349.32,3.37 11.93,-16.27 23.87,-32.33 35.79,-48.61zm1277.05 -4.49c-15.16,-0.57 -45.96,-2.06 -61.12,-2.8 1.25,14.57 3.98,43.37 5.22,57.77 15.42,1.12 45.97,3.18 61.37,4.11 -1.49,-14.77 -3.98,-44.3 -5.47,-59.07zm-240.75 -18.88c-42.49,-0.38 -85.22,-0.74 -127.95,-1.12 79.25,-34.96 174.9,-5.61 261.37,-9.34 -19.13,-22.07 -31.55,-48.61 -58.89,-65.99 -38.75,-1.87 -77.52,0 -116.03,1.31 -63.61,-0.19 -126.97,-5.24 -190.31,-10.66 9.44,44.87 45.7,61.88 109.07,50.85 -29.32,8.6 -58.89,17.02 -88.46,25.06 -0.5,11.21 -1.73,33.64 -2.23,44.86l2.98 -1.31c112.8,21.5 229.33,26.36 344.36,38.32 0.5,-14.58 1.49,-43.56 1.99,-58.15 -44.72,-7.3 -90.18,-11.21 -135.91,-13.83zm-994.08 -43.55c-117.01,2.23 -234.77,-7.67 -351.31,3.55 -2.98,16.07 -6.21,32.15 -9.45,48.42 59.88,-1.68 119.76,-2.63 179.39,-7.48 62.62,5.24 161.49,16.44 181.37,-44.49zm-353.78 -57.02c-16.16,-2.81 -48.95,-8.22 -65.36,-11.03 1.99,12.52 5.97,37.2 7.97,49.74 -48.71,35.33 -70.82,86.55 -127.72,116.47 19.38,5.41 38.76,11.02 58.14,16.44 38.01,-60.19 99.14,-107.31 126.98,-171.62zm336.4 -12.15c-99.88,-6.18 -199.27,9.34 -299.15,7.67 -0.99,9.54 -2.97,28.8 -3.97,38.51 106.83,1.68 213.42,1.31 320.26,-0.56 -4.22,-11.4 -12.92,-34.22 -17.14,-45.62zm343.4 5.05c-82.42,-34.77 -184.51,-4.49 -275.84,-6.55 0.62,9.16 2.15,27.67 3.08,36.83 72.57,5.42 145.45,-2.06 217.71,-6.36 -5.54,8.04 -16.31,24.49 -21.83,32.53 -65.81,-1.12 -131.6,1.12 -197.11,3.18 -3.08,11.59 -9.23,34.76 -12.3,46.36 43.36,-5.24 85.5,-3.74 126.39,4.67 -23.68,33.28 -107.02,12.89 -154.69,22.42 -12.29,15.72 -24.89,31.41 -37.5,47.31 99.33,-5.42 198.03,-13.09 296.74,-21.88 13.53,-15.33 27.67,-30.65 41.52,-45.81 -24.3,-0.93 -72.88,-2.8 -97.18,-3.74 21.83,-20.93 56.28,-30.28 103.02,-28.22 -8.92,-24.68 -22.13,-48.62 -42.43,-70.49l50.43 -10.28zm894.65 93.09c-39.01,-49.53 -76.01,-101.7 -137.39,-137.78 -28.32,41.69 34.29,57.78 67.07,79.45 -7.45,31.42 15.16,100.95 70.31,58.33zm-211.93 -124.13c-106.08,0.2 -210.68,-13.65 -316.52,-16.07 26.59,24.68 56.9,52.16 104.1,49.54 89.44,9.16 180.12,9.34 270.07,13.84 -19.13,-15.72 -38.51,-31.42 -57.65,-47.31zm-1051.71 -31.96c-98.14,-0.74 -196.53,0.19 -294.92,-0.37l21.12 34.02c100.38,8.96 202.24,7.67 303.12,2.61l-29.32 -36.27zm729.71 69.35c-14.41,-97.2 -175.91,-65.8 -263.36,-79.83 64.09,65.25 192.55,29.55 262.86,83.95 -63.62,-3.37 -125.72,-15.14 -187.33,-26.91 2.49,10.08 7.2,30.46 9.44,40.75 72.8,23.36 171.19,13.63 225.1,60.93 -71.55,-5.24 -140.87,-19.26 -210.68,-31.59 2.22,11.6 6.95,34.96 9.19,46.73 52.42,10.66 104.59,24.68 159.5,24.12 5.97,9.36 18.14,28.23 24.1,37.57 -64.84,-9.9 -128.19,-24.86 -193.54,-33.46 -6.96,14.95 -13.17,30.29 -18.63,45.61 68.32,17.58 137.88,32.53 207.46,47.67 7.46,-12.15 22.86,-36.64 30.55,-48.98l-24.85 -1.12c37.28,-50.66 28.34,-126 -29.8,-165.45zm-435.6 -95.9c-83.74,10.86 -169.25,18.51 -255.1,24.88 51.09,68.8 196.91,18.69 294.47,18.88 -13.13,-14.58 -25.89,-29.17 -39.37,-43.76zm756.37 -7.47c-77.27,-8.79 18.13,67.68 54.65,49.36 14.41,-24.68 -32.06,-40.01 -54.65,-49.36zm-27.58 44.3c-90.2,-82.44 -244.74,-38.7 -366.74,-59.82 19.64,14.4 39.26,28.78 58.64,43.19 102.86,3.55 205.47,11.39 308.09,16.63zm-1085.75 -70.29c-89.69,0.74 -179.64,4.49 -269.58,3.55 8.44,8.6 25.35,25.8 33.79,34.4 92.67,5.24 185.84,2.24 278.76,0.37 -13.17,-13.65 -27.32,-26.37 -42.97,-38.32zm240.5 16.46c-35.78,-68.24 -130.44,-21.7 -199.51,-17.76 46.72,56.83 129.7,25.99 199.51,17.76zm357.03 -40.01c-45.74,7.32 -91.48,14.29 -136.99,21.95 -69.11,-64.7 -181.04,-128.36 -345.85,-189.64 40.18,-25.05 85.38,1.68 127.44,5.78 32.66,31.42 83.94,34.77 124.74,54.04 48.34,-11.78 98.58,-24.12 147.76,-7.3 35.38,11.22 86.85,0 103.18,39.26 -73.46,-0.56 -142.73,-40.57 -216.82,-26.36 35.38,35.32 101.31,54.97 153.83,40.19 70.74,-18.12 136.45,25.99 207.2,21.7 48.34,-4.49 101.92,0.93 144.4,-23.38 -8.15,-16.07 -29.92,-20.74 -44.78,-30.46l3.13 30.1c-78.49,-22.63 -160.72,-19.26 -241.51,-25.43l-16.95 -14.4c43.33,-2.05 86.85,-1.49 130.18,-1.86 0.62,-5.98 2.29,-17.58 2.93,-23.38 -111.98,-0.17 -225.62,-32.51 -336.96,-3.35 -11.71,-7.48 -35.58,-22.24 -47.3,-29.72 75.35,-3.56 152.78,8.04 226.67,-10.1 -93.97,-22.25 -191.71,-29.92 -288.61,-24.3 17.37,10.84 52.11,32.33 69.47,43 -32.85,-1.89 -65.49,-3.56 -98.36,-5.07l14.86 -26.73c-38.3,3.55 -76.19,-1.31 -101.71,-29.91 36.2,-5.42 71.15,-2.24 105.05,9.34 48.14,-16.46 99.83,-14.95 150.48,-16.46 -39.13,-9.16 -79.52,-13.08 -119.7,-17.2 -4.19,-5.61 -12.14,-17.01 -16.33,-22.62l-2.93 25.99c-55.26,-11.77 -111.77,-19.44 -168.47,-14.21l-17.8 2.06c14.02,10.28 42.06,30.85 56.09,40.94 -20.31,0.94 -60.9,3 -81.21,3.93l-1.87 14.58c13.39,0.19 40.18,0.19 53.58,0.19l-19.67 21.13c-55.46,-17.39 -111.15,-34.03 -168.06,-46.55 0.83,5.6 2.71,16.81 3.54,22.61 249.1,52.31 650.75,191.25 507.88,482.06 -112.89,229.73 -721.66,494.4 -1544.19,771.51 -1818.96,612.83 -4527.73,1238.94 -5035.57,1380.38 74.71,1.68 151.32,9.53 224.35,-6.92 537.38,-150.59 3079.44,-834.73 4867.89,-1353.36 325.07,-94.26 1967.43,-599.99 1494.57,-1055.69 76.11,38.42 171.62,34.1 259.64,36.09 -40.98,-20.76 -84.96,-38.89 -134.4,-44.7l7.2 -17.75zm-880.28 74.04c-33.54,-45.06 -76.77,-102.27 -153.54,-106.37 25.34,17.94 51.43,35.33 78.51,51.77 2.98,32.35 36.28,47.11 75.03,54.6zm248.21 -68.8c-20.38,-19.08 -43.23,-44.49 -81.5,-37.4 -76.28,1.89 -152.29,2.81 -228.33,6.18 80,63 207.71,22.24 309.83,31.22zm740.46 -14.02c-58.82,-35.71 -132.9,-50.48 -202.37,-33.28 23.43,11.96 46.87,24.11 70.1,36.08 43.32,12.34 88.53,1.68 132.26,-2.8zm-427.57 -51.6c-36.22,9.34 -72.63,17.95 -109.05,26.54 21.36,12.34 42.92,24.3 64.25,36.64 32.66,-7.1 65.31,-14.2 97.74,-21.3 -17.37,-14.4 -35.17,-28.04 -52.94,-41.88zm682.27 -1.32c-7.11,1.12 -21.36,3.56 -28.47,4.86 4.19,9.73 12.56,28.99 16.75,38.71 -20.71,-2.61 -61.73,-8.04 -82.25,-10.65 -51.27,-0.37 -102.54,0.37 -153.62,3.37 54.42,45.23 128.51,45.23 198,46.55 40.8,-1.12 90.62,16.26 120.12,-18.5 23.24,14.95 48.35,26.17 75.56,33.46 -21.98,-21.68 -46.67,-41.51 -75.56,-55.52 -24.05,5.98 -47.51,13.28 -70.73,21.87 0,-16.06 0.21,-48.04 0.21,-64.13zm-871.48 9.92c-61.11,-59.84 -160.52,-27.49 -239.21,-25.44 62.59,63.58 159.06,24.12 239.21,25.44zm137.5 -26.18c-18.84,-8.97 -56.5,-27.29 -75.33,-36.45 -30.15,10.47 -59.86,21.5 -89.59,33.1 53.37,18.68 113.02,37.38 164.92,3.35zm-452.39 -73.28c-85.58,-75.16 -217.46,0.38 -326.18,-12.89 52.17,20.56 109.94,17.75 166.5,16.64 0.98,8.79 2.93,26.54 3.65,35.33 16.83,6.92 50.47,20.56 67.28,27.48l5.61 -28.6c131.64,45.99 272.54,-3.74 408.08,-9.34 -61.19,-30.29 -132.13,-54.78 -195.01,-12.15 -55.41,-4.61 -115.59,10.86 -170.39,4.35 0.21,-1.93 0.35,-4.05 0.42,-6.41 -20.94,-9.36 -28.44,-5.98 -28.96,0.68 -6.36,-1.89 -12.63,-4.22 -18.77,-7.04l87.78 -8.04zm-100.2 14.4l0 0c-1.71,63 -75.09,-28.8 0,0zm-68.37 -97.03c-30.13,3.37 -60.27,6.36 -90.4,9.16 -10.27,-5.04 -30.57,-14.77 -40.82,-19.63 18.21,-1.31 54.85,-3.55 73.04,-4.67 4.81,-8.97 14.66,-26.74 19.67,-35.71 23.45,5.79 46.89,11.77 70.32,17.76 -7.94,8.22 -23.86,24.86 -31.81,33.09zm-66.76 43.55l2.94 4.3c32.23,-0.93 64.46,0 96.47,2.44 21.98,-6.55 41.03,-16.83 57.14,-30.85 30.76,17.01 48.77,10.85 54.21,-18.32 21.56,0.75 64.46,2.61 86.01,3.38l-29.93 26.71c37.05,25.81 73.26,71.99 127.88,39.46 -8.16,-21.88 -29.1,-34.77 -48.35,-48.05 41.88,-6.92 83.94,-12.89 126.2,-15.89 -7.75,-9.71 -23.01,-29.35 -30.76,-39.08 41.23,-0.74 82.46,-0.93 123.06,-6.16l33.06 -9.16c-91.23,-29.17 -194.84,-12.34 -282.11,-53.28 -51.5,-28.23 -127.88,11.03 -165.34,-39.08 5.86,6.73 17.37,20.19 23.01,26.92 -42.27,5.23 -84.96,10.1 -127.45,15.51 45.83,4.87 91.67,9.17 137.5,13.66 -21.56,12.14 -43.54,24.3 -65.31,36.46 -74.29,-11.41 -151.1,-8.43 -223.51,-29.18 49.39,-8.96 98.98,-16.83 148.18,-26.54 -104.65,-9.71 -209.09,2.98 -312.68,15.69 -19.46,-12.89 -41.45,-19.06 -65.09,-12.89 -52.53,19.08 -108,31.42 -164.49,35.9 11.92,-6.16 36.2,-18.5 48.34,-24.49 9.41,-8.78 28.67,-26.16 38.08,-34.96 -42.27,-6.72 -84.76,-13.26 -127.44,-18.32 -50.03,24.12 -105.06,37.02 -160.54,47.11 24.49,-19.07 49.61,-37.76 74.94,-55.89 -40.4,-5.98 -79.96,-16.46 -118.68,-28.24 27.63,-3.92 55.46,-7.66 83.08,-11.22 -14.43,-6.16 -43.31,-18.49 -57.96,-24.67 17.37,-6.73 51.69,-20.19 68.86,-26.92 -73.46,1.5 -146.92,4.48 -220.17,8.78 48.76,7.85 97.73,15.52 146.5,23.56 -31.61,5.99 -63.63,10.48 -95.22,17.2 24.07,6.56 48.13,13.46 71.98,20.76 -43.93,23.19 -93.34,35.14 -142.94,45.06 11.93,-16.64 35.58,-49.91 47.52,-66.55 -28.04,5.81 -56.09,11.78 -84.14,17.95 -5.02,-7.29 -15.07,-21.5 -20.09,-28.61 -9.21,3.37 -27.84,9.92 -37.25,13.29 -38.51,14.02 -78.48,25.42 -118.04,37.39 63.84,10.64 128.51,13.82 193.16,14.58 57.98,46.18 153.21,3.18 209.3,51.97 135.62,-2.06 260.56,52.33 395.55,56.08 -4.17,4.86 -12.77,14.57 -16.94,19.44 48.34,3 96.68,5.42 145.24,5.79 9,8.99 27.21,27.12 36.21,36.08 45.41,12.34 92.49,22.07 140,12.89zm124.94 -51.03c-10.88,9.73 -10.88,9.73 0,0m-374.83 -18.5l-47.51 2.43 29.1 -15.52c31.39,-14.77 62.16,-30.66 91.24,-48.59 24.49,8.41 48.77,16.81 72.83,25.97 -47.94,13.84 -96.28,26.18 -145.67,35.71zm329.84 -116.28c-46.67,-8.22 -94.39,-10.1 -141.69,-6.92 -40.19,4.3 -80.36,9.71 -120.34,15.52 87.49,3.74 175.17,2.43 262.03,-8.6zm-252.2 -40.75c-55.66,-2.8 -111.55,-5.98 -167.21,-2.06 -17.8,2.06 -53.37,5.98 -70.95,8.04 40.8,3.93 81.41,9.36 121.39,17.76 -9.22,9.91 -18.84,19.81 -28.68,29.73 39.34,-3.18 78.69,-4.86 118.03,-5.42 -15.9,-4.86 -47.5,-14.58 -63.41,-19.45 24.49,-15.51 59.86,-23.55 90.83,-28.6zm364.24 507.37c-40.5,-11.03 -53.42,-0.94 -38.75,30.48 39.99,10.84 53.16,0.74 38.75,-30.48zm108.97 -135.34c7.32,-23.37 -34.75,-43.93 -56.31,-32.72 -7.94,23.74 34.74,45.06 56.31,32.72zm962.73 -69.18c-63,-30.09 -3.16,62.26 0,0zm-191.3 -55.34c-11.92,10.85 -11.92,10.85 0,0m-1491.79 -280.6c-56.1,-3.75 -112.38,-5.04 -168.48,-6.92 1.05,5.61 3.15,16.83 4.19,22.62 41.02,20 86.23,30.29 131.22,39.82 -13.18,-13.46 -26.58,-26.74 -39.97,-40.01 24.27,-5.42 48.76,-10.65 73.04,-15.51zm735.85 195.92l0 0c-16.76,14.03 -67.59,15.33 -69.06,-10.47 16.73,-14.77 67.59,-15.69 69.06,10.47zm-191.51 12.71l0 0c-10.88,9.73 -10.88,9.73 0,0zm-1402.64 -299.49c-48.55,-7.66 -97.73,-10.45 -146.92,-12.51 1.47,6.72 4.19,20.18 5.66,26.92 47.92,6.35 94.81,-6.18 141.26,-14.41zm-1029.42 -1.43c0.24,-4.7 6.65,-9.3 13.9,-10.72l-13.9 10.72zm-38.88 -44.97c-13.66,-0.47 -27.06,0.57 -40.28,2.67 4.14,-16.66 17.94,-18.98 41.22,-7.14l0 0c-0.23,1.6 -0.56,3.09 -0.94,4.46zm-101.9 35.78c6.42,0.17 12.84,0.31 19.24,0.34 -4.46,7.44 -13.22,4.78 -19.24,-0.34zm102.83 -87.52c-24.69,-16.81 -38.71,-12.33 -41.86,13.84 24.91,16.81 38.94,12.34 41.86,-13.84zm-1333.16 -75.79l0 0c-11.3,6.83 -11.3,6.83 0,0zm584.97 97.81l0 0c-10.67,7.26 -10.67,7.26 0,0zm123.26 12.56l0 0c3.77,48.42 -59.43,-19.53 0,0zm126 13.4l0 0c4.81,48.7 -59.65,-18.7 0,0zm903.29 77.85l0 0c-12.55,0.71 -37.87,2.1 -50.43,2.8 -12.35,-21.07 52.95,-23.31 50.43,-2.8zm-504.96 1723.34c-3.23,20.18 -6.46,40.56 -9.19,60.93 42.49,0.19 85.72,0.56 126.47,-9.73 -39.02,-6.53 -78.51,-11.96 -118.02,-17.38l0.74 -33.83zm1389.44 -286.67c-98.39,-7.1 -189.58,-57.01 -288.47,-16.44 17.39,14.02 38.02,20 61.86,17.94 75.03,-11.77 149.82,4.5 223.36,13.66 0.76,-3.74 2.5,-11.41 3.25,-15.15zm-5194.28 1189.43c-97.89,-20.57 -192.8,27.29 -287.71,42.25 8.2,5.99 24.85,17.95 33.05,23.74 87.2,-16.07 176.64,-31.4 254.66,-65.99z"/>
  <path class="fil0" d="M2660.85 4832.58c-12.18,-4.49 -36.52,-13.83 -48.44,-18.32 -86.47,15.7 -171.94,35.14 -256.17,56.83 18.63,9.34 37.76,29.92 63.36,17.95 81.24,-16.83 162.48,-34.02 241.25,-56.46z"/>
  <path class="fil0" d="M2312.25 4900.44c-102.86,-21.68 -206.22,30.29 -307.58,44.69 19.87,20 51.43,25.6 82.24,15.7 77.52,-14.21 156.78,-28.41 225.35,-60.39z"/>
  <path class="fil0" d="M2322.7 4933.71c-41,7.67 -81.75,15.9 -122.49,25.63 49.69,4.66 99.87,5.78 149.58,6.9 -6.72,-8.22 -20.38,-24.3 -27.08,-32.53z"/>
  <path class="fil1" d="M1874.1 5009.81l-0.22 0c-60.63,0 -123.64,-1.32 -187.27,-3.91 -1.26,-0.05 -2.68,-0.13 -4.12,-0.27 -517.75,-42.2 -900.17,-128.51 -1168.85,-263.79 -266.86,-134.35 -424.55,-317.11 -482.08,-558.74 -20.93,-88.12 -31.56,-229.97 -31.56,-421.66 0,-263.19 19.36,-532.2 21.57,-562 0.1,-1.48 0.29,-3.32 0.46,-4.73 27.03,-220.94 95.9,-288.25 156.65,-347.63l0.69 -0.67c4.14,-4.07 8.67,-8.28 14.28,-13.22 51.28,-46.76 127.27,-89.44 225.51,-126.6 4.5,-1.7 9.16,-3.45 13.94,-5.19 1.64,-0.6 3.31,-1.21 4.98,-1.8 53.59,-19.45 114.14,-37.46 180.19,-53.52 -28.26,-143.89 -47.15,-303.43 -56.17,-474.84 -4.29,-81.6 -6.48,-165.92 -6.48,-250.6 0,-38.36 0.42,-76.82 1.23,-114.32 0.31,-15.16 0.75,-30.07 1.28,-44.94l0.09 -1.91 0.03 -0.91c25.55,-699.09 289.06,-1332.48 671.31,-1613.52 2.53,-1.9 5.61,-4.15 8.72,-6.37 3.02,-2.19 6.16,-4.44 9.37,-6.65 5.87,-4.15 12.13,-8.43 18.38,-12.59 22.94,-15.24 46.12,-29.04 68.92,-41.05l3.3 -1.69 1.03 -0.56 1.23 -0.61c4.96,-2.57 9.83,-5.09 14.71,-7.45 49.32,-24.44 100.13,-42.73 150.76,-54.31 49.79,-11.37 124.55,-13.75 178.5,-13.75 83.82,0.01 833.46,10.89 1337.59,383.35 179.83,132.92 326.46,345.18 424.01,613.77 90.32,248.65 138.09,541.67 138.1,847.41 0,430.78 -90.17,809.22 -268.02,1125.43 23.9,18.53 44.79,37.45 62.34,56.46 2.06,2.22 4.29,4.63 6.46,7.05 0.32,0.35 0.68,0.76 1.05,1.2l0.25 0.27c0.17,0.19 0.34,0.38 0.5,0.54 11.13,12.61 20.92,25.23 29.11,37.5 10.1,15.18 60.48,93.75 68.96,160 1.87,14.92 2.79,34.43 2.79,59.72 -0.02,207.33 -71.38,831.93 -91.22,948.76 -35.34,207.78 -175.78,394.73 -395.43,526.45 -267.66,160.5 -646.81,241.9 -1126.9,241.9l0 0zm-1079.43 -3845.83c0,0 205.85,-829.49 729.63,-825.41 116.17,4.07 279.21,73.35 403.53,258.83 -23.07,-49.92 -170.79,-271.78 -406.38,-275.09 -352.55,0 -621.62,382.21 -726.79,841.67zm1389.23 1868.67c0,0 21.7,57.37 116.65,70.91 26.04,3.71 112.07,2.75 243.41,-95.95 9.41,-7.08 15.38,0.82 3.3,11.24 -116.17,100.28 -215.09,113.19 -242.19,111.81 -76.59,-3.9 -103.77,-41.78 -113.66,-58.25 -8.22,-13.73 -7.52,-39.76 -7.52,-39.76zm-451.17 316.37c0,0 306,-303.15 376.82,-529.82 -22.67,153 -164.33,410.83 -376.82,529.82zm414.86 -94.3c0,0 182.97,18.93 306,-74.14 -18.92,33.13 -89.9,108.83 -276.02,107.26 -29.98,0 -55.22,-33.11 -29.98,-33.12zm893.12 -280.67c0,0 -4.72,92.71 99,70.72 6.28,0 -1.57,22 -11,22 -9.44,-0.01 -97.43,1.57 -88.01,-92.71zm-91.15 182.28c0,0 3.15,50.28 67.57,29.86 12.57,-4.72 17.28,17.29 14.14,22.01 -3.15,4.71 -92.71,14.14 -81.72,-51.87zm-936.75 236.95c0,0 156.87,63.11 302.95,-32.46 12.63,-10.82 -48.69,1.8 -48.69,1.8 0,0 -88.35,48.69 -254.26,30.66zm768.2 -423.76c0,0 -99.19,180.33 -223.61,234.43 -10.81,3.6 88.35,-59.52 192.94,-212.79 5.42,-9.02 30.66,-21.64 30.67,-21.64zm120.79 86.99c0,0 -46.33,179.27 -20.15,218.55 11.09,13.1 11.09,-22.16 11.09,-22.16 0,0 -15.11,-57.39 9.06,-196.39zm466.5 -1994.68c-2.42,-7.07 -19.12,0.21 -21.6,-6.8 -2.57,-7.22 6.58,-33.46 3.92,-40.6 -87.71,-236.97 -214.82,-429.01 -384.93,-554.74 -359,-265.26 -885.79,-350.58 -1200.12,-363.09 -14,0.59 -10.86,20.49 19.69,39.64 7.53,4.28 14.94,8.77 22.37,13.24 35.36,11.37 98.45,31.34 113.63,34.16 21.41,3.96 171.24,-1.58 198.19,-1.58 11.1,0 -26.95,16.65 -34.88,16.65 -7.92,-0.01 -112.58,2.37 -121.29,3.17 -8.73,0.79 1.57,19.82 12.67,22.99 11.1,3.17 47.55,1.57 53.12,1.57 5.56,0 -6.35,11.9 -6.35,11.9 0.01,0 -34.87,1.58 -41.22,2.38 -4.73,0.58 -3.72,22.76 2.67,42.88 10.41,9.74 20.71,19.67 30.83,29.88 17.94,-1.43 66.4,-4.93 77.12,-1.76 7.82,2.32 4.63,22.33 -4.07,22.91 -4.44,0.3 -29.71,1.25 -49.02,3.89 8.79,9.41 17.51,18.99 26.07,28.77 6.79,-4.3 15.59,-8.42 23.97,-8 17.03,0.84 179.61,33.19 231.52,-19.58 -31.5,64.69 -160.97,40 -217.9,40 -9.06,0 -15.95,3.2 -20.85,7.17 13.7,16.35 27.13,33.13 40.21,50.42 13.11,-1.93 36.66,-4 68.62,-1.23 7.54,0.65 10.77,17.38 5.12,17.38 -5.4,-0.01 -30.81,0.5 -58.88,4.01 28.63,39.39 55.75,80.96 81.08,124.89 7.56,2.41 31.04,9.03 59.04,4.52 7.51,-1.21 5.57,15.84 0.9,16.85 -17.42,3.74 -33.23,3.72 -45.77,3.78 6.27,11.34 12.43,22.79 18.48,34.42 5.04,0.27 10.6,0.8 16.54,1.75 62.92,9.99 171.38,32.27 238.87,-17.68 -5.53,18.7 -44.34,65.63 -222.16,46.78 -5.66,-0.61 -11.17,0.49 -16.56,2.15 11.56,23.56 22.72,47.65 33.41,72.27 9.41,2.72 27.45,9.85 52.77,11.61 16.57,1.14 8.84,24.62 -3.62,24.08 -6.92,-0.3 -21.13,-0.54 -34.86,-1.72 21.43,52.33 40.95,106.89 58.41,163.65 13.35,2.89 27.4,5.48 38.39,5.63 19.1,0.27 21.83,32.69 10.8,32.96 -10.05,0.24 -23.16,-0.49 -38.29,-1.92 5.39,18.7 12.96,45.46 17.91,64.61 45.5,0.07 164.26,60.63 230.64,-11.54 -50.65,99.09 -152.84,37.61 -226.35,30.09 9.49,38.66 18.2,78.11 25.92,118.5 17.3,6.45 33.01,10.92 46.26,11.82 8.87,0.6 4.63,22.39 -1.33,22.83 -11.23,0.82 -25.99,-0.5 -39.1,-2.98 11.74,66.05 21.24,134.18 28.19,204.48 13.35,6.65 32.28,15.37 51.67,21.82 11.83,3.94 4.94,28.15 -7.03,25.34 -6.6,-1.55 -24.59,-6.56 -41.51,-13.32 2.29,26.51 4.29,53.25 5.9,80.32 3.86,0.47 7.92,1.05 12.41,1.92 51.07,9.89 181.22,49.42 237.22,-34.59 -60.48,108.86 -199.91,61.04 -247.82,66.52 1.85,38.23 3.05,76.97 3.5,116.26 8.13,6.06 22.7,14.07 47.96,20.43 10.93,2.75 6.09,27.42 -5.66,26.11 -6.75,-0.75 -25,-4.39 -42.07,-10.96 0.05,47.38 -0.87,95.48 -2.87,144.29 -1.13,27.69 -2.67,55.15 -4.5,82.47 11.46,4.67 26.38,9.45 45.76,13.54 8.92,1.9 -0.25,26.16 -11.41,24.61 -8.56,-1.2 -22.49,-4.34 -36.49,-8.62 -1.84,24.25 -3.89,48.4 -6.24,72.36 50.98,25.13 155.38,59.27 253.73,-15.39 -44.12,78.89 -179.84,74.26 -257.43,51.2 -4.07,37.12 -9.53,78.66 -14.8,114.96 12.78,11.62 35.45,22.18 59.42,32.59 5.52,2.41 -10.18,16.83 -24.44,14.39 -23.72,-4.08 -34.27,-11.51 -39.96,-13.66 -17.93,113.44 -41.74,222.36 -70.47,325.75 50.06,15.39 91.85,95.52 219.53,45.61 -120.24,95.82 -168.75,34.16 -236.87,13.98 -41.27,136.1 -91.28,261.67 -148.3,373.54 -10.27,20.12 85.38,88.24 166.04,55.29 24.77,-10.12 49.02,-22.1 72.75,-35.68 11.97,-30.41 36.01,-81.03 41.24,-92.54 7.69,-16.97 29.28,-21.6 29.28,-21.6 0,0 -22.02,56.24 -35.55,92.72 299.73,-196.08 507.68,-654.18 535.82,-1022.72 1.04,-13.63 6.81,-13.11 7.07,0.79 0.75,40.64 -30.26,613.78 -425.7,996.92 7.11,9.63 72.46,-24.98 92.91,-48.21 3.27,-3.74 17.84,-21.9 26.23,-32.91 4.9,-6.45 8.64,-2.94 6.46,1.28 -2.17,4.21 -9.68,15.94 -15.6,25.4 20.65,-9.37 40.87,-17.75 60.42,-24.76 67.47,-104.02 132.65,-259.6 169.21,-395.52 3.97,-14.76 12.66,-15.1 9.24,6.87 -9.32,59.9 -57.3,254.3 -137.63,376.03 28.87,-7.32 55.67,-10.23 79.63,-6.92 13.98,-27 40.89,-79.37 46.02,-92.69 6.99,-18.18 5.6,20.97 2.79,36.34 -1.43,7.94 -11.09,36.78 -20.09,62.8 16.25,4.28 31.02,8.68 44.44,13.13 23.58,-197.38 88.58,-574.05 95.85,-595.86 8.4,-25.15 25.18,-13.97 22.37,-4.19 -25.22,125.04 -65.94,470.39 -82.29,613.27 18.54,7.62 33.85,15.29 46.8,22.81 3.34,-78.3 9.33,-216.97 10.33,-227.96 1.4,-15.38 20.98,-39.15 20.98,-19.57 0,15.88 -1.84,198.16 -2.52,266.47 44.44,33.11 54.16,59.31 116.7,58.45 189.98,-301.41 300.34,-680.09 300.34,-1153.66 -0.01,-278.13 -40.77,-548.4 -121,-782.69zm-2934.94 2977.88c0,0 580.93,434.7 695.53,537.45 29.64,31.61 75.09,81.01 77.05,132.38 1.98,17.79 21.74,-51.38 -55.32,-144.26 -21.73,-23.7 -717.26,-525.58 -717.26,-525.58zm618.03 341.86c0,0 289.96,199.89 309.72,213.08 19.78,13.17 116.42,83.46 112.03,166.93 -2.2,10.97 8.79,-70.3 -116.42,-153.76 -43.93,-24.17 -305.33,-226.25 -305.33,-226.25zm-316.29 -206.5c0,0 755.61,281.15 959.89,553.53 6.58,10.97 -19,12.32 -26.63,5.23 -107.37,-99.65 -162.27,-198.51 -933.26,-558.75zm870.73 329.88c0,0 277.5,155.66 329.95,230.1 11.85,16.92 16.93,-20.3 1.7,-33.84 -15.23,-13.53 -128.6,-98.13 -331.65,-196.26zm-472.05 -236.89c0,0 586.47,171.71 985.15,408.92 13.54,10.15 60.96,41.19 75.78,85.67 0,-19.78 15.9,-58.35 -62.61,-107.08 -95.55,-59.31 -352.55,-222.41 -998.32,-387.52zm468.95 76.14c0,0 592.03,67.85 953.31,261.39 61.51,32.95 103.24,107.63 59.3,182.32 0,0 96.66,-129.59 -52.71,-210.87 -138.39,-70.29 -485.45,-186.71 -959.91,-232.84zm472.27 153.76c0,0 246,96.65 300.92,123 54.92,26.37 76.87,94.46 70.29,136.2 -6.59,13.17 -4.41,-83.47 -79.08,-120.82 -46.13,-19.76 -292.13,-138.38 -292.13,-138.38zm41.74 -149.37c0,0 417.34,15.38 503,21.96 85.67,6.59 265.79,94.45 287.74,109.83 21.98,15.38 48.33,35.16 46.14,83.47 -2.2,48.32 -15.38,101.04 -15.38,101.04 0,0 6.59,-68.1 0,-105.43 -6.58,-37.34 -23.06,-48.84 -37.33,-59.3 -32.96,-24.16 -206.49,-98.84 -281.17,-114.22 -32.95,-6.59 -503.01,-37.34 -503,-37.34zm375.61 87.87c0,0 215.16,59.66 259.19,96.65 54.92,46.12 87.87,90.05 50.53,186.71 -2.2,2.19 26.36,-123.02 -85.67,-193.31 -41.6,-26.1 -224.04,-90.04 -224.04,-90.04zm371.21 -83.48c0,0 153.76,46.14 177.92,74.7 24.16,28.55 24.16,96.65 17.58,138.37 -4.39,21.98 2.2,-96.65 -35.16,-127.4 -61.5,-39.54 -160.34,-85.67 -160.34,-85.67zm-305.32 -59.29c0,0 285.54,-4.39 366.83,-4.39 39.53,0 171.32,26.36 215.26,90.05 10.97,13.18 8.78,101.04 10.97,123.01 2.2,8.78 8.79,-96.66 4.39,-127.41 -4.39,-30.74 -87.86,-98.83 -239.42,-98.83 -24.17,0 -305.33,8.77 -358.04,17.57zm373.41 -76.88c0,0 92.25,-57.12 261.39,-57.12 41.72,4.41 98.84,54.91 98.84,107.63 0,8.8 -30.76,-76.87 -103.24,-90.05 -17.57,0 -96.66,-8.79 -257,39.54zm171.34 21.96c0,0 94.44,19.76 118.61,48.32 24.16,28.56 26.36,101.05 4.39,134.01 -4.39,10.97 21.96,-48.34 -17.58,-116.43 -24.15,-35.14 -105.42,-65.89 -105.42,-65.89zm70.29 -136.2c32.94,-8.78 101.04,-35.13 133.99,-63.69 8.79,-6.6 6.27,-26.51 -16.46,-11.36 -22.35,14.9 -58.44,40.05 -114.7,61.67 -26.64,10.25 -35.78,22.16 -2.83,13.37zm72.42 8.18c0,0 63.03,17.39 63.03,79.32 5.44,-17.39 6.51,-44.56 6.51,-44.56 0,0 -26.07,-40.2 -69.54,-34.76zm-146.56 -33.42c39.53,-26.36 210.87,-143.32 243.82,-344.31 -11.53,28.01 -57.66,207.57 -283.36,337.73 -11.53,9.88 32.68,11.15 39.54,6.58zm196.04 -354.19c0,0 -171.33,336.07 -471.16,425.03 -19.76,3.3 -13.17,28 11.54,28 24.7,0 296.53,-88.95 459.62,-453.03zm-112.03 0c0,0 -210.87,469.51 -756.16,533.76 -14.83,1.64 -20.83,-32.68 -2.75,-33.5 48.33,-2.2 430.53,2.19 758.91,-500.26zm-1262.96 552.31c-15.42,-0.23 -11.22,-26.18 1.87,-26.18 13.08,0 491.19,46.63 974.43,-412.45 -21.96,32.94 -375.61,448.09 -976.3,438.63zm-515.17 -38.87c0,0 722.13,59.86 1119.16,-340.47 -41.19,31.31 -383.3,347.04 -1090.6,322.89 -24.16,0 -50.53,15.39 -28.56,17.58zm-456.87 -105.46c0,0 454.13,135.65 1025.79,-199.88 17.58,-8.78 98.07,-36.61 44.48,2.76 -80.72,59.3 -609.55,341 -1070.27,197.12zm-500.82 -778.11c0,0 -30.66,312.38 -285.39,320.71 204.94,31.28 295.82,-252.62 298.02,-268 2.2,-15.38 12.91,-16.9 25.26,-16.47 16.48,0.56 42.29,1.64 60.41,1.09 -37.7,-9.69 -98.3,-37.33 -98.3,-37.33zm1258.07 310.81l-0.97 0c0.23,2.42 0.54,2.97 0.97,0zm1520.5 -556.08c2.17,12.94 3.71,31.59 2.35,44.44 -25.88,243.27 -843.59,326.6 -1482.61,272.21 -53.05,-4.51 -109.96,-9.61 -169.37,-15.52 102.09,-35.28 253.19,-213.99 269.76,-258.17 -314.49,371.16 -637.47,133.15 -716.82,62.32 -328.65,-294.65 -368.32,-1045.47 -368.32,-1045.47 -14.17,682.82 238,1150.32 393.82,1187.15 4.06,0.83 8.48,1.7 13.16,2.57 -106.23,-17.06 -211.46,-37.49 -309.58,-62.22 -101.21,-28.83 -183.23,-61.87 -247.97,-96.81 -71.2,-49.23 -90.7,-119.12 -77.02,-185.18 20.77,-64.37 85.74,-101.83 143.42,-128.7 -3.96,-13.65 -9.99,-39.82 -13.83,-48.41 -83.42,29.91 -200.48,95.32 -201.28,178.24 -0.34,44.84 15.37,80.49 37.16,108.35 -56.78,-50.06 -83.48,-100.63 -84.93,-145.69 -3.33,-103.31 138.43,-163.35 236.5,-193.17 -4.95,-16.79 -8.04,-36.08 -11,-43.98 -320.45,80.82 -312,237.54 -305.12,275.61 19.16,105.79 188.87,185.91 374.24,242.66 -38.8,-4.04 -114.91,-14.46 -188.1,-38.97 -50.86,-17.05 -98.68,-80.47 -134.53,-76.29 -125.09,-8.74 -182.67,-141.04 -182.67,-141.04 -6.68,123.78 173.88,247.38 469.79,345.72 -14.9,9.17 -29.39,26.08 -38.89,23.75 -49.43,-12.07 -199.89,-56.01 -362.34,-165.97 0,0 153.66,119.14 298.69,164.01 10.36,5.18 13.81,12.1 12.08,25.9 -1.72,13.81 -18.99,296.97 -276.24,334.96 44.89,1.72 257.25,-34.54 296.97,-334.96 3.46,-12.08 13.81,-8.64 25.9,-3.45 12.07,5.17 56.97,20.71 65.59,24.16 8.64,3.46 10.36,17.27 8.64,29.36 -1.73,12.07 -36.25,260.71 -234.82,310.77 31.09,0 202.01,-29.35 248.64,-305.59 3.45,-13.81 7.96,-20.71 17.25,-20.71 15.54,0 25.9,8.63 17.27,17.25 -8.63,8.64 -25.89,31.09 -12.08,36.27 13.82,5.18 112.23,39.71 127.77,44.88 15.54,5.18 44.89,245.18 -295.23,298.7 18.98,1.72 366.02,-12.1 334.94,-345.32 -1.72,-5.17 17.25,-5.18 22.45,-3.45 5.17,1.72 8.63,72.51 -8.64,134.67 -3.46,12.08 13.81,-20.71 22.45,-55.24 15.53,3.45 46.62,10.35 46.62,10.35l0 -18.99 27.63 3.46 1.72 18.99c0,0 55.26,13.81 67.33,17.27 -3.45,10.36 -10.35,246.9 -381.56,309.05 39.71,0 395.37,-15.53 421.27,-386.74 0,-6.9 19,-6.9 19,-6.9 0,0 5.17,46.62 5.17,60.42 0,13.81 0,48.34 18.99,48.34 19,0 58.7,-3.46 58.7,-3.46l0 -20.71 25.9 1.72c0,0 6.9,67.34 -12.08,120.86 -1.72,5.18 -1.72,18.99 18.99,20.71 15.54,1.73 12.1,145.04 -364.3,231.36 65.61,-6.9 421.55,-70.3 442.97,-325.65 1.65,-19.78 0.82,-64.25 0.82,-70.83 0,-6.59 3.3,-13.18 11.54,-12.36 8.23,0.82 8.23,5.77 8.23,12.36 0,6.58 50.24,238.88 -180.4,331.13 14.83,1.64 199.34,-56.02 204.28,-265.24 0,-8.23 4.95,-11.52 9.89,-11.52 4.94,0 41.18,3.28 46.13,3.28 4.95,0 8.23,8.23 8.23,13.18 0,4.94 8.23,59.3 -8.23,95.55 6.58,-4.94 21.42,-62.59 19.76,-105.43 4.94,0 13.18,0 13.18,0 0,0 3.3,36.24 18.12,36.24l57.5 1.65c-9.73,74.13 -82.12,297.27 -586.32,348.09 55.74,4.73 670.5,-28.5 612.84,-458.48 0,-4.94 29.65,0 29.65,0 0,8.25 3.3,62.6 3.3,75.78 0,13.18 1.65,24.71 6.59,34.6 4.94,9.89 6.59,39.53 -13.18,79.08 -73.53,147.07 -251.49,384.39 -1013.7,272.36 61.5,26.37 900.04,182.33 1058.19,-316.83 6.59,-13.18 8.23,-36.25 29.64,-36.25 20.85,0 16.78,0 28.69,0 -0.68,-6.96 -0.68,-29.64 -0.68,-29.64l28.01 0 1.65 29.64c11.53,0 43.93,1.67 53.8,1.67 9.9,0 28.78,-0.15 28.56,17.57 -0.54,44.47 -41.74,263.58 -459.07,366.83 107.62,0 527.17,-140.59 476.65,-455.81 -1.77,-11 18.84,-7.34 24.16,-6.58 5.34,0.76 4.39,40.64 7.69,49.43 3.3,8.78 3.3,27.44 25.26,27.44 0,0 22.16,1.69 38.78,1.55 7.59,-0.07 17.35,3.91 16.81,13.63 8.33,59.85 -8.11,128.51 -8.11,128.51 21.28,-41.59 26.1,-103.47 26.1,-151.38 0,-8.78 -2.2,-53.81 -2.2,-59.3 0,-5.48 23.07,-4.38 23.07,-4.38 0,-0.01 2.19,51.62 2.19,62.6 0,10.97 5.49,15.37 15.39,14.27 9.88,-1.1 59.3,0 68.08,-1.1 8.79,-1.09 20.87,-7.69 20.87,-21.96 0,-14.28 -9.89,-57.11 -12.08,-65.91 -2.2,-6.58 15.38,-10.96 20.87,0.01 5.48,10.99 27.45,52.72 29.64,63.7 2.2,10.99 15.37,19.76 24.17,19.76 8.79,0 165.85,-1.09 173.53,-1.09 4.39,0 26.36,136.18 -60.41,217.46 21.97,-9.89 139.49,-142.78 59.33,-278.97 -6.6,-9.88 18.67,-6.57 27.44,1.1 8.8,7.69 19.76,34.06 21.96,42.84 2.21,8.79 11.84,13.18 21.97,13.18 15.38,-0.01 107.64,2.2 117.52,2.2 9.88,0 28.82,4.48 31.85,30.75 3.3,28.55 2.2,147.17 -52.72,186.71 0,0 106.53,-57.11 71.39,-250.42 -7.46,-41 -16.47,-66.99 -20.86,-72.48 -4.39,-5.49 13.25,-8.85 18.68,-1.1 7.69,10.97 17.86,40.96 25.26,58.2 6.58,15.37 13.66,20.87 29.65,20.87 28.55,0 84.57,-1.11 98.83,-1.11 9.9,0 19.78,3.3 21.98,15.38 2,11.03 51.61,165.84 -242.73,358.04 0,0 331.68,-168.04 257,-395.38 -3.3,-10.99 -15.18,-36.66 -21.42,-45.65 -6.21,-8.99 16.6,-5.53 25.56,-3.46 8.97,2.08 18.65,23.48 25.56,37.28 6.9,13.82 25.21,18.41 38.39,16.21 13.18,-2.2 65.91,-12.08 69.19,-13.17 3.3,-1.09 9.9,2.2 9.9,7.68 0,5.49 17.57,163.65 -71.4,239.43 53.81,-26.91 131.25,-162.82 62.6,-329.49 -3.02,-6.31 -1.36,-10.43 3.57,-13.74 4.95,-3.28 12.36,0 15.65,7.42 3.3,7.41 27.19,46.13 32.95,56.01 5.77,9.89 19.76,16.48 32.95,12.35 13.18,-4.12 33.23,-13.99 38.17,-15.64 4.94,-1.64 13.99,0 13.99,7.4 0,7.42 18.68,130.98 -28.28,222.41 15.1,-9.33 73.32,-147.71 38.16,-289.4 -3.28,-4.38 -1.09,-12.07 4.41,-14.27 5.49,-2.2 30.75,18.67 35.13,45.02 4.39,26.37 26.36,-20.87 27.47,-35.13 1.1,-6.6 -25.27,-45.03 -29.66,-50.53 -4.38,-5.49 11,-6.59 16.48,-2.2 5.49,4.39 28.56,30.76 38.44,41.74 7.68,8.79 6.59,-6.58 7.68,-20.86 1.11,-14.28 -5.48,-41.74 -5.48,-46.13 0,-4.39 7.68,-5.48 17.57,3.3 9.89,8.78 43.93,50.51 45.03,63.7 1.11,13.18 2.21,129.59 -8.78,165.84 -1.1,8.8 27.45,-83.47 21.96,-168.03 -1.1,-18.67 -17.57,-50.51 -24.17,-63.7 -3.28,-7.7 5.49,-26.37 18.67,-8.79 13.18,17.58 20.87,34.05 23.07,43.93 2.21,9.89 7.69,0.01 7.69,-12.08 0,-12.08 3.3,-31.84 5.48,-39.53 2.2,-7.7 17.75,-4.51 24.18,5.48 9.88,15.37 23.06,153.75 -12.08,252.6 16.47,-27.45 48.33,-144.97 26.36,-278.96 -1.09,-9.89 9.88,-13.17 17.57,-2.19 7.69,10.96 24.17,51.6 18.68,103.23 4.39,-5.49 19.78,-80.17 -20.87,-136.18 -8.78,-10.99 1.1,-16.48 15.38,-12.08 14.27,4.39 15.38,-7.68 17.58,-14.27 2.2,-6.58 9.89,-1.1 24.16,-10.99 13.77,-9.54 35.71,-111.01 -8.08,-174.37 -16.38,-31.33 -45.11,-62.75 -84.91,-93.73 -8.81,13.76 -24.88,44.65 -32.29,60.71zm-2455.11 -1231.08c0,0 26.41,-1258.14 720.31,-1428.63 166.02,-40.79 537.85,24 696.3,813.96 12.02,57.63 -21.6,12 -26.4,-4.79 -2.37,-8.3 -43.83,-192.25 -133.5,-378.65 -238.3,180.16 -307.46,506.01 -363.28,704.59 -144.99,515.64 -15.38,1087.28 256.99,1397 300.94,-371.21 320.71,-1054.35 329.49,-1074.12 13.18,688.62 -276.76,1143.31 -512.63,1308.02 17.53,-20.5 38.65,-45.76 61.05,-73.91 -34.82,-47.96 -319,-453.83 -312.81,-917.81 0,-42.82 16.47,-105.43 39.54,-128.49 0,0 -19.38,567.32 327.62,975.23 11.83,-16.18 23.53,-32.73 34.8,-49.38 -300.93,-336.08 -382.79,-940.38 -257,-1451.91 131.88,-536.32 353.32,-706.53 378.67,-724.52 -92.22,-179.05 -229.58,-350.26 -420.38,-359.21 -614.67,-28.81 -816.35,1243.72 -818.76,1392.61zm83.43 139.26c18.13,707.53 299.36,1255.25 642.17,1260.46 66.72,1.01 149.54,-16.16 193.6,-50.01 -456.3,-509.8 -379.53,-1269.33 -335.49,-1715.72 -61.72,-7.11 -481.04,263.59 -500.28,505.27zm941.86 560.7c58.27,1.1 150.98,4.73 221.91,10.18 67.77,-206.81 105.63,-444.92 109.64,-690.77 0.25,-16.53 0.39,-33.01 0.39,-49.39 0,-299.65 -46.81,-583.88 -132.47,-807.95 -15.44,18.87 -32.85,42.27 -51.08,70.52 -75.86,117.69 -176.31,336.48 -224.05,710.21 -10.65,83.4 -16.05,165.91 -16.05,245.2 0,213.35 48,392.86 91.71,512l0 0z"/>
  <path class="fil1" d="M2452.44 2349.71c1.09,-5.03 10.05,7.37 35.51,9.36 316.3,24.7 412.96,-466.21 419.54,-490.38 2.32,-8.55 9.76,-11.15 7.49,3.4 0,0 -77.78,559.47 -436.92,510.6 0,0 -31.54,-5.7 -25.63,-32.97z"/>
  <path class="fil1" d="M2916.28 998.3c118.61,370.67 -1.65,779.23 -89.95,948.46 -21.61,40.36 -69.18,79.28 -83.03,89.42 93.9,-120.26 293.87,-582.44 164.3,-1034.57 -3.64,-17.42 6.04,-11.8 8.68,-3.31z"/>
  <path class="fil1" d="M2311.78 2864.36c-14.56,-14.47 18.02,-20.96 37.79,-9.43 30.47,13.18 126.02,25.53 186.15,-9.88 -35.42,43.66 -183.69,59.3 -223.95,19.3z"/>
  <path class="fil1" d="M2576.81 2819.07c172.06,-145.59 267.56,-388.78 272.02,-401.15 3.26,-9.02 10.34,-10.47 6.56,4.21 -1.93,7.54 -67.51,210.52 -192.77,339.65 -23.03,23.74 -85.81,57.29 -85.81,57.29z"/>
  <path class="fil1" d="M596.23 2771.44c31.57,-10.05 56.55,-20.8 -7.27,-3.05 -102.15,28.4 -232.88,90.96 -222.06,224.11 7.46,91.79 95.55,153.62 153.62,172.57 -104.2,-58.07 -132.45,-138.32 -131.39,-184.1 1.39,-59.7 37.89,-155.67 207.1,-209.53z"/>
  <path class="fil1" d="M714.64 3307.65c0,0 374.59,190.76 1696.07,173.41 305.36,-4.01 908.72,-86.71 867.09,-350.3 62.44,45.09 -10.4,360.72 -880.98,381.53 -419.91,10.03 -1408.18,-20.8 -1682.18,-204.64z"/>
  <path class="fil1" d="M2516.79 2818.7c0,0 44.65,-123.89 47.59,-131.72 2.94,-7.82 30.32,-16.63 33.26,-16.63 -6.85,13.7 -52.03,132.69 -53.67,139.28 -1.64,6.59 -27.18,9.07 -27.18,9.07z"/>
  <path class="fil1" d="M2604.38 2561.69c0,0 52.71,-138.37 56.01,-152.65 2.2,-5.49 -21.97,7.69 -21.97,7.69l-54.91 152.66 20.87 -7.7z"/>
  <path class="fil1" d="M2662.58 2295.91c0,0 31.85,-138.38 35.14,-152.65 -4.17,0.59 -21.97,6.59 -21.97,6.59l-35.38 154.8 22.2 -8.74z"/>
  <path class="fil1" d="M2694.66 2019.21c0,0 12.94,-131.85 16.24,-146.13 -4.17,0.59 -21.96,6.59 -21.96,6.59l-16.47 148.27 22.19 -8.73z"/>
  <path class="fil1" d="M2701.25 1765.51c0,0 7.46,-139.54 10.74,-153.81 -4.17,0.59 -19.76,3.28 -19.76,3.28l-13.17 159.26 22.19 -8.73z"/>
  <path class="fil1" d="M2691.13 1502.97c0,0 -1.1,-110.94 -2.2,-145.53 -4.17,0.6 -19.68,5.05 -19.68,5.05l-5.03 139.92 26.91 0.56z"/>
  <path class="fil1" d="M2649.72 1257.46c0,0 -1.41,-139.34 -2.35,-150.1 -4.17,0.59 -14.49,3.27 -14.49,3.27l-0.47 145.42 17.31 1.4z"/>
  <path class="fil1" d="M2597.58 1008.21c-1.33,-22.77 -11.36,-99.89 -18.09,-118.42 -3.34,-6.16 -12.08,-2.57 -11.15,1.4 0.93,3.96 15.96,112.55 16.58,118.51 0.84,8.18 12.99,4.49 12.65,-1.49z"/>
  <path class="fil1" d="M2540.17 795.7c-5.91,-27.56 -20.17,-77.51 -27.57,-95.77 -3.57,-6.04 -12.18,-2.13 -11.11,1.8 1.09,3.93 25.27,89.97 26.1,95.92 1.16,8.14 13.84,3.91 12.58,-1.95z"/>
  <path class="fil1" d="M2466.41 620.58c-8.92,-26.1 -29.15,-72.9 -39.08,-89.75 -4.58,-5.42 -14.22,-0.51 -12.69,3.19 1.55,3.68 35.97,84.4 37.39,90.06 1.94,7.79 16.28,2.04 14.37,-3.5z"/>
  <path class="fil1" d="M2381.6 464.31c-10.93,-22.98 -34.43,-63.76 -45.3,-78.15 -4.78,-4.49 -13.09,1.04 -11.29,4.26 1.8,3.23 41.86,73.59 43.76,78.64 2.6,6.93 15.15,0.14 12.83,-4.74z"/>
  <path class="fil1" d="M2280.76 331.02c-16.34,-25.7 -21.68,-36 -30.41,-48.99 -4.23,-5.01 -13.13,-0.47 -11.7,2.94 1.42,3.4 24.76,45.61 29.98,53.86 4.48,7.08 18.21,1.73 12.14,-7.81z"/>
  <path class="fil1" d="M2188.83 233.13c-8.6,-14.94 -16.43,-25.16 -27.62,-34.36 -3.93,-3.46 -13.73,0.89 -11.74,2.75 7.25,6.79 21.89,27.89 26.92,37.95 2.88,5.72 16.76,1.16 12.43,-6.35z"/>
  <path class="fil1" d="M2662.58 2546.87c0,0 352.55,-401.42 345.95,-1055.98 -2.2,-19.78 -15.24,-17.9 -19.06,-17.9 -3.82,0 -11.98,-8.72 -0.54,-16.88 11.45,-8.18 29.22,-3.61 35.97,16.88 26.47,80.5 -16.35,784.49 -339.26,1082.13 -15.37,10.99 -39.54,14.27 -23.06,-8.25z"/>
  <path class="fil1" d="M3093.4 1777.51c-3.55,80.35 28.01,892.92 45,1037.9 9.24,78.84 98.54,96.65 137.03,37.34 13.59,-15.38 70.21,-155.96 70.21,-155.96 0,0 -65.69,147.17 -120.03,147.17 -36.53,0 -58.91,-53.27 -61.72,-107.63 -5.5,-105.87 -50.38,-776.2 -50.38,-951.94 0,-17.58 -18.18,-50.77 -20.11,-6.88z"/>
  <path class="fil1" d="M2479.17 1296.48c21.82,4.09 133.99,35.16 205.38,-36.24 71.01,-71.01 96.66,-228.43 85.66,-353.63 -1.09,-10.99 11.63,15.48 13.18,26.34 2.2,15.38 39.54,296.54 -137.28,399.78 -39.3,22.96 -125.21,23.06 -163.64,5.49 -9.89,-4.39 -20.87,-45.02 -3.3,-41.74z"/>
  <path class="fil1" d="M2524.2 1812.13c17.36,6.16 271.83,98.84 352.55,-416.8 4.94,-23.07 9.47,7 8.65,22.65 -0.83,15.65 -42.71,433.13 -281.02,447.41 -40.64,3.28 -66.59,-2.61 -88.42,-8.79 -9.88,-3.71 -28.83,-57.66 8.25,-44.48z"/>
  <path class="fil1" d="M2446.76 1522.18c0,0 352.55,174.64 393.74,-344.3 9.89,-69.19 11.53,-370.68 -85.67,-528.82 -6.59,-11.54 11.54,-9.88 23.06,3.3 11.54,13.17 207.57,530.47 -8.23,866.54 -44.08,68.64 -187.81,149.91 -331.13,52.71 -19.76,-11.53 -41.19,-59.3 8.23,-49.43z"/>
  <path class="fil1" d="M3415.36 2468.4c0,0 -36.24,179.7 -123.83,161.58 -36.24,-12.08 -78.54,-75.51 -99.68,-483.25 -3.02,-16.61 -7.55,51.35 -10.56,99.68 -3.03,48.33 -8.28,406.99 102.68,431.9 73.99,16.61 110.25,-114.78 131.39,-209.91z"/>
  <path class="fil1" d="M3039.84 1247.05c1.64,26.37 182.86,914.33 199.34,999.99 14.83,88.97 62.6,196.04 125.2,207.57 26.12,4.82 72.49,6.59 52.71,-56.01 -13.17,9.89 -97.19,31.31 -140.02,-169.69 -42.84,-200.98 -194.39,-891.25 -210.87,-937.38 -16.48,-46.13 -26.36,-44.49 -26.36,-44.49z"/>
  <path class="fil1" d="M3192.47 1655.98c3.5,19.82 88.84,337.34 124.85,440.59 25.21,75.63 92.44,106.85 152.46,85.24 1.2,-9.61 0,1.2 3.61,-32.42 -31.21,1.2 -98.44,9.6 -134.46,-84.03 -11.99,-24.02 -129.64,-391.37 -138.05,-422.58 -8.41,-31.21 -12.02,-7.2 -8.41,13.2z"/>
  <path class="fil1" d="M2909.19 832.38c8.01,22.42 235.88,553.93 310.45,754.82 24.35,63.92 147.62,409.37 251.1,325.67 7.61,-6.08 -1.53,-16.73 -18.26,-21.3 -16.73,-4.57 -111.1,-47.18 -206.96,-325.67 -22.83,-59.35 -270.9,-662 -325.68,-745.71 -9.14,-18.26 -18.26,-9.11 -10.65,12.19z"/>
  <path class="fil1" d="M3140.51 1177.83c4.65,7.55 108.06,216.1 136.96,267.85 28.92,51.74 76.09,228.26 203.93,216.1 0.01,6.08 1.53,33.48 1.53,33.48 0,0 -101.95,-1.53 -138.49,-71.53 -36.52,-70 -190.23,-385.02 -199.36,-412.42 -9.14,-27.4 -16.73,-53.27 -4.57,-33.48z"/>
  <path class="fil1" d="M3217.76 1240.47c-126.85,-233.93 -459.63,-690.27 -469.52,-705.1 -9.88,-14.83 -3.28,-16.47 11.54,-4.94 151.55,151.57 441.5,619.43 484.34,693.56 98.84,158.16 144.38,203.99 191.1,207.58 21.42,1.64 9.88,19.76 -19.78,19.76 -29.65,0 -94.63,-20.82 -197.68,-210.87z"/>
  <path class="fil1" d="M2995.36 774.25c0,0 169.68,217.47 224.04,291.6 54.37,74.13 136.74,151.55 191.09,158.15 4.95,3.3 9.9,31.31 0,32.96 -9.88,1.64 -116.96,-37.9 -212.51,-187.81 -21.42,-37.9 -196.04,-271.83 -199.34,-278.42 -3.28,-6.59 -16.47,-32.95 -3.28,-16.48z"/>
  <path class="fil1" d="M2547.26 314.63c0,0 365.73,299.82 561.76,550.23 46.14,52.72 170.57,181 237.68,190.17 1.21,-7.3 7.79,-28.71 7.79,-28.71 0,-0.01 -100.48,-28 -232.29,-194.39 -62.19,-78.54 -355.83,-397.03 -574.94,-517.29z"/>
  <path class="fil1" d="M2809.2 479.36c0,0 107.09,75.78 228.99,192.75 121.91,116.98 192.75,168.04 237.24,184.51 11.53,6.59 -21.42,8.23 -60.96,-9.88 -39.54,-18.13 -148.27,-116.98 -189.45,-159.81 -41.19,-42.84 -163.1,-166.39 -215.82,-207.57z"/>
  <path class="fil1" d="M2430.29 227.31c0,0 187.8,59.3 408.55,235.58 56.02,47.77 258.65,196.04 313.01,227.35 13.18,6.58 14.84,16.47 -3.28,14.83 -18.12,-1.65 -202.63,-131.8 -308.07,-222.41 -47.77,-39.54 -329.49,-238.87 -410.21,-255.35z"/>
  <path class="fil1" d="M2733.41 881.34c6.85,-90.49 -4.94,-373.96 -135.09,-484.34 -20.26,-17.2 -42.84,-19.78 -18.12,1.64 20.72,17.96 166.39,154.86 108.73,517.28 -13.76,86.49 -128.51,196.05 -306.43,112.04 -4.93,-0.01 -34.6,61.04 16.48,70.83 197.68,37.89 319.6,-21.42 334.42,-217.46z"/>
  <path class="fil1" d="M2375.19 226.11c0,0 223.68,131.35 150.11,392.73 -12.08,28.56 1.1,34.05 14.28,29.66 13.17,-4.41 46.12,-110.93 23.06,-213.07 -13.18,-46.13 -72.49,-164.75 -164.74,-206.47 -18.67,-9.9 -38.82,-7.9 -22.71,-2.86z"/>
  <path class="fil1" d="M2438.54 332.19c9.62,21.19 32.95,127.41 -39.55,151.57 -46.12,18.68 -124.1,21.96 -165.84,8.79 -10.99,-4.39 8.79,28.55 18.67,30.75 9.89,2.2 141.68,16.48 198.79,-49.43 17.58,-25.26 20.87,-81.28 6.59,-125.2 -6.59,-15.37 -24.16,-28.56 -18.67,-16.48z"/>
  <path class="fil1" d="M2374.82 840.7c18.42,3.76 285.56,105.45 244.93,-260.3 -1.11,-10.99 18.12,12.64 19.76,21.7 1.65,9.07 8.23,87.31 -2.46,152.39 -10.72,65.07 -83.2,166.39 -250.41,132.62 -9.89,-3.31 -22.24,-37.9 -23.07,-44.48 -0.82,-6.6 -2.21,-4.67 11.25,-1.93z"/>
  <path class="fil1" d="M2799.68 401.27c4.76,2.87 229.23,146.14 247.38,156.65 18.14,10.5 24.83,32.47 24.83,32.47 0,-0.01 -164.27,-106.98 -176.7,-114.63 -12.42,-7.64 -95.51,-74.5 -95.51,-74.5z"/>
  <path class="fil1" d="M2308.1 197.35c10.17,13.48 55.46,49.73 43.11,146.11 -1.76,13.69 -0.94,28.1 19.78,11.53 16.47,-13.17 26.34,-98.84 -47.78,-158.15 -16.07,-12.87 -23.7,-10.87 -15.1,0.51z"/>
  <path class="fil1" d="M2064.98 283.79c21.23,2.36 256.44,16.63 199.45,-90.23 -5.93,-5.93 -6.29,-2.79 -6.66,17.06 -0.56,29.18 -34.89,62.48 -211.79,41.11 -17.81,-1.19 -2.37,29.69 19,32.06z"/>
  <path class="fil0" d="M4239.1 1562.6l0 -927.63 688.42 0 0 927.63 -212.79 0 0 -757.97 -262.84 0 0 757.97 -212.79 0zm1095.67 -344.9l0 344.9 -221.13 0 0 -927.63 365.29 0c81.37,0 143.72,8.81 187.06,26.18 43.12,17.39 81.83,48.46 115.67,93.42 34.07,44.74 50.99,99.68 50.99,165.04 0,45.66 -9.03,90.17 -27.11,133.74 -18.09,43.34 -43.59,77.64 -76.73,102.45 -32.91,25.04 -64.9,41.49 -95.96,49.6 -30.82,8.12 -79.49,12.29 -145.56,12.29l-152.51 0zm-6.95 -168.29l140.93 0c53.78,0 91.33,-12.51 113.11,-37.32 21.56,-25.03 32.45,-53.54 32.45,-85.76 0,-37.55 -12.06,-67.44 -36.16,-89.69 -24.34,-22.26 -60.96,-33.39 -110.09,-33.39l-140.23 0 0 246.16zm972.82 527.1c-124.71,0 -221.37,-46.82 -289.74,-140.47 -68.38,-93.88 -102.46,-207.21 -102.46,-340.26 0,-135.37 34.54,-248.26 103.85,-338.88 69.31,-90.63 167.81,-135.84 296,-135.84 129.35,0 226.93,48.21 292.76,144.87 65.83,96.66 98.74,207.46 98.74,331.93 0,134.45 -33.84,247.78 -101.75,340.04 -67.92,92.48 -166.89,138.61 -297.39,138.61zm6.26 -778.83c-113.58,0 -170.37,100.14 -170.37,300.63 0,200.97 56.79,301.57 170.37,301.57 109.87,0 164.8,-100.37 164.8,-300.88 0,-200.97 -54.92,-301.33 -164.8,-301.33zm1116.54 -162.71l0 183.58 -229.48 0 0 744.05 -219.73 0 0 -744.05 -230.88 0 0 -183.58 680.08 0zm755.64 176.63l-440.86 0 0 190.53 346.29 0 0 173.85 -346.29 0 0 203.05 440.86 0 0 183.58 -662 0 0 -927.63 662 0 0 176.63zm343.28 -176.63l0 433.68 290.2 -433.68 207.68 0 -222.98 329.84 278.61 597.78 -237.58 0 -185.9 -401.93 -130.03 189.14 0 212.79 -212.79 0 0 -927.63 212.79 0zm1250.74 0l0 183.58 -229.48 0 0 744.05 -219.74 0 0 -744.05 -230.86 0 0 -183.58 680.08 0zm441.33 941.54c-124.71,0 -221.37,-46.82 -289.74,-140.47 -68.38,-93.88 -102.46,-207.21 -102.46,-340.26 0,-135.37 34.54,-248.26 103.85,-338.88 69.31,-90.63 167.81,-135.84 296,-135.84 129.35,0 226.92,48.21 292.76,144.87 65.83,96.66 98.74,207.46 98.74,331.93 0,134.45 -33.84,247.78 -101.76,340.04 -67.91,92.48 -166.88,138.61 -297.38,138.61zm6.26 -778.83c-113.58,0 -170.37,100.14 -170.37,300.63 0,200.97 56.79,301.57 170.37,301.57 109.86,0 164.8,-100.37 164.8,-300.88 0,-200.97 -54.93,-301.33 -164.8,-301.33zm756.1 420.01l0 344.9 -221.13 0 0 -927.63 365.3 0c81.37,0 143.71,8.81 187.06,26.18 43.11,17.39 81.82,48.46 115.66,93.42 34.08,44.74 51,99.68 51,165.04 0,45.66 -9.04,90.17 -27.12,133.74 -18.08,43.34 -43.58,77.64 -76.72,102.45 -32.92,25.04 -64.91,41.49 -95.96,49.6 -30.83,8.12 -79.51,12.29 -145.57,12.29l-152.51 0zm-6.95 -168.29l140.93 0c53.79,0 91.33,-12.51 113.11,-37.32 21.56,-25.03 32.46,-53.54 32.46,-85.76 0,-37.55 -12.06,-67.44 -36.16,-89.69 -24.34,-22.26 -60.97,-33.39 -110.11,-33.39l-140.23 0 0 246.16zm-6723.79 1728.98l0 -927.63 212.79 0 0 744.05 248.94 0 0 -744.05 212.79 0 0 744.05 248.94 0 0 -744.05 212.79 0 0 927.63 -1136.24 0zm1542.34 -91.79l0 91.79 -212.79 0 0 -927.63 212.79 0 0 394.51c0,67.69 -1.86,136.06 -5.56,205.13 35.23,-79.03 69.77,-142.78 103.61,-191.22l217.66 -312.46 0 -95.96 212.78 0 0 927.63 -212.78 0 0 -422.08c0,-70.69 1.85,-128.64 5.56,-173.61 -29.44,70 -64.21,133.74 -104.31,191.45l-216.95 312.45zm1429.68 -835.84l0 927.63 -212.78 0 0 -382.45 -289.28 0 0 382.45 -212.79 0 0 -927.63 212.79 0 0 361.6 289.28 0 0 -361.6 212.78 0z"/>
 </g>
</svg>
